<?xml version="1.0" standalone="no"?>
<!DOCTYPE svg PUBLIC "-//W3C//DTD SVG 20010904//EN"
 "http://www.w3.org/TR/2001/REC-SVG-20010904/DTD/svg10.dtd">
<svg version="1.0" xmlns="http://www.w3.org/2000/svg"
 width="4500.000000pt" height="4100.000000pt" viewBox="0 0 4500.000000 4100.000000"
 preserveAspectRatio="xMidYMid meet">

<g transform="translate(0.000000,4100.000000) scale(0.100000,-0.100000)"
fill="#000000" stroke="none">
<path d="M15452 37669 l-53 -21 64 -38 c211 -123 427 -339 602 -600 73 -109
179 -304 173 -319 -2 -4 -163 22 -358 59 -195 37 -692 131 -1105 208 -412 77
-790 149 -840 158 -117 24 -243 23 -315 -1 -73 -24 -904 -506 -954 -553 -21
-20 -55 -62 -76 -93 -38 -59 -95 -213 -85 -230 4 -5 16 -9 29 -9 30 0 151 -41
227 -78 56 -27 63 -28 97 -16 61 22 171 17 259 -11 280 -88 577 -428 697 -798
76 -234 73 -503 -7 -629 -12 -19 -13 -34 -6 -83 9 -54 12 -93 17 -217 2 -44 9
-46 95 -23 53 14 199 94 740 409 181 105 180 104 245 168 88 87 131 190 178
426 2 12 12 22 20 22 9 0 327 -58 708 -129 380 -71 711 -132 736 -136 89 -12
467 -87 565 -111 199 -50 517 -162 753 -266 88 -38 92 -41 76 -59 -95 -105
-34 -373 123 -540 77 -82 148 -119 228 -119 51 0 66 6 196 82 77 45 151 94
164 110 13 15 29 53 36 84 25 110 -33 288 -136 416 -78 97 -205 167 -280 155
-27 -4 -99 -43 -244 -130 l-34 -21 6 81 c8 100 39 185 86 235 21 23 127 91
261 169 215 126 228 132 291 136 93 7 161 -10 254 -64 143 -84 325 -291 408
-464 33 -71 77 -169 77 -173 0 -3 20 -46 44 -98 24 -51 67 -146 96 -211 29
-64 56 -120 61 -123 5 -3 95 45 201 107 106 61 240 139 298 172 159 91 189
114 230 179 140 216 58 649 -186 989 -68 94 -204 228 -288 283 -127 84 -86 75
-1731 382 l-1540 288 3 101 c3 81 0 119 -17 185 -67 256 -251 489 -445 562
-28 11 -75 38 -105 60 -76 58 -206 124 -277 142 -86 22 -196 20 -262 -5z
m2705 -3100 c81 -39 144 -145 151 -256 4 -67 3 -73 -21 -97 -83 -83 -256 53
-283 221 -20 128 45 184 153 132z"/>
<path d="M20295 35993 c119 -94 238 -247 323 -413 l44 -85 -5 65 c-16 213
-192 436 -367 465 l-45 8 50 -40z"/>
<path d="M11839 35582 c-74 -27 -506 -282 -561 -331 -92 -82 -141 -229 -137
-411 2 -94 2 -95 -29 -128 -109 -116 -85 -401 55 -635 69 -116 206 -253 300
-300 88 -43 180 -57 235 -34 34 14 37 14 84 -16 125 -78 292 -115 401 -88 28
7 156 75 304 162 322 187 361 225 405 390 22 84 22 266 -1 374 -99 474 -467
927 -826 1020 -75 20 -173 18 -230 -3z m-397 -1038 c179 -91 308 -392 231
-540 -25 -47 -57 -64 -122 -64 -172 0 -367 270 -348 481 6 67 31 118 68 136
41 21 114 16 171 -13z"/>
<path d="M21594 33418 c8 -18 52 -118 99 -223 97 -217 117 -282 117 -389 l0
-76 49 31 c74 45 95 94 89 207 -8 142 -63 264 -168 372 -55 57 -142 110 -180
110 -19 0 -19 -2 -6 -32z"/>
<path d="M14180 32563 c0 -11 146 -567 221 -843 214 -781 469 -1633 630 -2100
60 -173 160 -447 184 -505 60 -142 137 -475 160 -690 6 -54 6 -369 0 -410 -37
-249 -95 -412 -201 -561 -80 -114 -151 -167 -464 -348 -161 -93 -319 -180
-352 -193 -243 -98 -562 -62 -889 103 -105 52 -333 198 -358 228 -37 44 -41
-6 -8 -96 76 -209 293 -381 616 -488 515 -172 1172 -115 1578 135 43 27 117
87 164 134 113 113 156 197 172 339 l10 97 775 450 c457 266 800 471 838 503
313 258 440 801 334 1430 -175 1029 -928 2120 -1749 2531 -231 116 -382 156
-641 171 -354 20 -801 71 -997 115 -13 3 -23 2 -23 -2z"/>
<path d="M19498 32296 c-26 -14 -98 -56 -160 -94 -128 -77 -147 -101 -155
-192 -13 -141 55 -310 171 -426 83 -82 144 -114 218 -114 46 0 67 8 188 76
164 93 186 113 206 183 63 214 -161 564 -374 587 -38 4 -56 0 -94 -20z m-51
-297 c81 -39 144 -145 151 -256 4 -67 3 -73 -21 -97 -83 -83 -256 53 -283 221
-20 127 46 184 153 132z"/>
<path d="M31846 32079 c-253 -33 -557 -167 -777 -345 -162 -129 -204 -262
-165 -508 15 -90 26 -121 26 -72 0 41 27 85 56 92 40 10 145 -3 204 -25 29
-11 115 -54 192 -96 169 -93 230 -115 317 -115 89 0 170 31 311 116 l115 70
-85 -85 c-101 -103 -135 -162 -135 -241 0 -43 7 -69 29 -110 87 -161 81 -137
81 -321 0 -163 1 -168 24 -193 38 -40 81 -43 163 -11 209 82 267 -21 194 -344
l-23 -103 54 5 c66 7 187 62 260 119 145 112 271 362 318 633 23 128 30 349
16 479 -25 224 -102 445 -212 607 -56 83 -188 220 -264 274 -201 144 -450 206
-699 174z"/>
<path d="M21453 31965 c-149 -75 -268 -313 -224 -448 27 -81 109 -109 196 -67
60 29 139 113 178 189 78 150 72 284 -15 334 -41 23 -75 21 -135 -8z m-23
-199 c0 -2 -8 -10 -17 -17 -16 -13 -17 -12 -4 4 13 16 21 21 21 13z"/>
<path d="M20340 28991 c0 -665 -2 -637 57 -693 36 -34 123 -74 193 -89 70 -15
249 -6 317 15 77 24 144 74 171 126 l22 44 0 604 c0 572 -1 604 -17 597 -227
-95 -499 -95 -725 0 -17 7 -18 -26 -18 -604z"/>
<path d="M20838 26658 l-658 -381 0 -260 0 -259 120 -128 121 -128 -3 -139 -3
-140 -215 122 c-118 67 -262 150 -320 184 l-105 61 -5 352 -5 353 -26 9 c-22
7 -166 -74 -1275 -720 -687 -400 -1293 -753 -1346 -783 -74 -43 -94 -59 -85
-67 7 -6 299 -177 650 -379 l637 -367 0 -525 c0 -416 3 -524 13 -520 6 3 896
516 1976 1140 l1964 1134 311 -186 311 -187 3 -770 2 -770 98 -56 c89 -51 536
-309 977 -565 99 -57 213 -124 253 -149 41 -24 76 -44 78 -44 7 0 356 -201
374 -215 15 -13 72 -45 170 -98 84 -45 309 -176 365 -212 28 -18 88 -52 135
-77 47 -25 121 -67 165 -93 101 -60 106 -64 305 -177 91 -52 404 -232 695
-400 292 -169 536 -308 543 -310 9 -2 20 18 32 57 11 33 35 85 54 115 46 73
72 120 80 146 6 19 -2 24 -67 48 -161 59 -317 171 -383 276 -106 168 -89 327
51 478 162 175 411 269 790 297 84 6 283 -8 373 -26 30 -6 55 -9 58 -7 2 3 -1
31 -6 64 -30 194 -93 571 -96 582 -2 8 -32 -5 -88 -38 -47 -27 -89 -50 -94
-50 -7 0 -370 205 -380 215 -2 2 39 28 91 59 98 58 107 68 107 116 0 32 -39
70 -72 70 -11 0 -77 -34 -148 -75 -71 -41 -132 -75 -136 -75 -14 0 -333 184
-334 192 0 4 36 28 81 54 111 64 139 89 139 125 0 33 -28 66 -64 75 -20 5 -56
-12 -168 -77 -78 -45 -147 -82 -153 -82 -11 1 -353 197 -368 212 -5 5 29 31
87 65 96 57 116 77 116 116 0 28 -44 70 -74 70 -13 0 -83 -34 -155 -75 -71
-41 -133 -75 -136 -75 -3 0 -4 122 -3 272 l3 272 114 67 113 67 -48 28 c-26
15 -1036 598 -2243 1296 l-2196 1267 -5 -212 -5 -212 -214 -370 c-118 -203
-221 -379 -228 -390 -12 -17 -13 1 -11 132 l3 152 -97 56 -97 56 14 32 c7 18
59 133 114 256 l101 224 0 144 c0 78 -3 143 -7 142 -5 0 -304 -172 -665 -381z"/>
<path d="M31720 25912 l-845 -337 -65 21 c-36 12 -66 18 -68 15 -2 -7 234
-910 240 -916 1 -2 62 -13 134 -25 107 -17 139 -19 173 -10 82 22 108 79 96
214 -14 156 -12 192 11 223 27 37 84 52 120 32 15 -8 52 -51 81 -96 30 -46 66
-92 80 -103 26 -20 79 -28 69 -11 -21 33 21 66 356 287 539 355 648 428 648
439 0 29 -166 605 -175 604 -5 0 -390 -152 -855 -337z"/>
<path d="M28370 24858 c-172 -19 -336 -101 -453 -227 -138 -150 -165 -325
-103 -661 33 -176 36 -185 93 -288 71 -129 81 -160 98 -300 16 -128 35 -224
54 -274 8 -21 17 -28 36 -28 27 0 35 14 100 168 27 63 76 102 128 102 52 0
100 -28 123 -72 11 -21 20 -75 26 -153 16 -214 36 -359 56 -417 41 -116 116
-191 226 -223 131 -39 373 -38 536 1 88 22 232 91 307 148 262 198 423 572
440 1016 20 540 -172 994 -480 1139 -102 47 -151 54 -331 47 -139 -6 -176 -4
-270 14 -89 16 -147 20 -305 19 -108 -1 -234 -6 -281 -11z"/>
<path d="M32870 24667 c-388 -236 -735 -388 -821 -358 -29 10 -36 7 -87 -33
-96 -73 -257 -175 -334 -211 -107 -49 -217 -69 -355 -63 -101 5 -113 4 -109
-11 3 -9 57 -212 120 -452 l115 -437 63 -61 c49 -48 69 -61 88 -58 26 3 1729
665 1743 677 10 8 -285 1073 -298 1076 -6 1 -62 -30 -125 -69z"/>
<path d="M30752 22877 l-234 -1062 32 -120 c37 -141 71 -333 96 -535 23 -183
27 -822 6 -990 -34 -273 -56 -342 -129 -395 l-42 -30 0 -710 c-1 -390 -4 -822
-8 -959 -6 -243 -6 -249 13 -242 10 4 231 131 491 282 260 151 482 274 494
274 24 0 288 -148 328 -184 39 -34 71 -114 71 -176 0 -30 -72 -910 -159 -1955
l-160 -1900 -28 -25 c-15 -14 -705 -418 -1533 -899 -828 -480 -1509 -877
-1514 -882 -5 -5 13 -30 44 -61 90 -88 96 -109 92 -340 -2 -109 -1 -198 2
-198 3 0 369 211 813 469 445 258 813 471 820 473 6 2 101 -49 212 -112 l201
-115 0 -121 0 -121 40 -27 c35 -23 40 -31 40 -64 0 -35 -4 -40 -48 -66 l-49
-28 -27 -107 c-35 -134 -74 -214 -142 -290 -97 -107 -193 -135 -289 -85 -69
36 -92 59 -111 113 -21 56 -37 76 -74 91 -34 14 9 36 -625 -333 l-450 -262 -6
-175 c-4 -130 -2 -178 7 -185 6 -5 401 -235 878 -510 l866 -500 0 -52 0 -52
58 -34 c55 -32 57 -35 60 -79 3 -44 2 -46 -41 -71 -43 -26 -44 -27 -72 -134
-37 -137 -81 -226 -148 -295 -93 -98 -187 -128 -268 -88 -76 38 -106 67 -125
117 -9 27 -24 56 -33 65 -15 15 -204 128 -215 128 -3 0 -8 -16 -12 -35 -4 -21
-12 -35 -21 -35 -23 0 -61 48 -78 100 -13 40 -23 52 -60 71 -42 23 -45 26 -45
66 0 39 3 44 40 65 22 13 40 26 40 29 0 4 -302 181 -671 394 l-670 387 -67
-17 c-230 -58 -543 -58 -772 0 l-66 16 -614 -357 c-338 -196 -617 -359 -620
-361 -3 -3 3 -9 13 -14 12 -7 17 -22 17 -50 0 -36 -4 -41 -48 -69 l-48 -29
-28 -108 c-34 -131 -83 -229 -151 -298 -58 -60 -116 -93 -177 -101 -36 -5 -53
0 -103 26 -80 42 -89 52 -114 118 -20 57 -22 58 -120 114 -55 32 -105 59 -112
60 -7 2 -17 -14 -24 -36 l-11 -38 -31 26 c-18 16 -40 49 -51 79 -16 42 -28 57
-61 75 -39 22 -41 26 -41 71 0 45 2 49 40 70 l40 22 0 129 0 128 865 502 865
503 -2 181 -3 180 -454 262 -454 262 -46 -38 c-98 -81 -164 -96 -243 -56 -81
41 -96 56 -122 121 -24 59 -26 61 -132 123 -59 34 -111 59 -115 55 -4 -5 -11
-23 -16 -40 l-8 -32 -31 24 c-20 15 -39 45 -50 77 -15 41 -28 57 -61 77 -40
24 -43 29 -43 71 0 41 4 48 31 64 27 16 29 20 15 28 -13 7 -16 28 -16 121 l0
112 -188 195 c-212 221 -222 237 -230 371 -8 152 36 286 120 365 85 81 192
122 341 133 l92 6 -293 168 c-188 109 -299 179 -312 197 -52 73 -52 69 -50
577 0 260 3 480 6 488 7 16 275 175 296 175 8 0 18 -4 23 -9 12 -10 444 -234
1065 -551 261 -133 636 -325 833 -427 197 -102 360 -183 361 -181 2 1 81 352
175 778 95 426 174 784 177 795 4 17 -4 23 -48 39 -235 82 -385 202 -396 315
-2 25 5 123 17 216 47 386 71 818 71 1290 0 281 -18 915 -26 924 -2 2 -25 -2
-51 -9 -120 -31 -365 -23 -678 22 l-150 21 -2250 -1299 -2250 -1300 -5 -2688
-5 -2688 -345 -200 c-190 -110 -354 -204 -366 -210 -17 -8 -68 19 -332 178
l-312 188 0 2737 0 2736 -1705 979 c-937 538 -1704 981 -1704 984 0 3 59 39
133 80 l133 75 -75 42 -74 43 -92 -52 c-50 -28 -102 -59 -116 -68 -55 -38 -59
-37 -256 76 -210 120 -203 109 -97 164 27 13 76 42 111 63 l63 40 -73 41 -73
42 -75 -44 c-41 -24 -97 -58 -124 -74 -28 -16 -57 -30 -65 -31 -9 0 -46 17
-83 38 l-68 39 0 156 0 156 -66 38 c-36 20 -67 36 -69 34 -2 -2 -5 -85 -6
-185 -1 -100 -6 -187 -10 -194 -4 -7 -218 -135 -476 -284 l-468 -273 -5 749
-5 749 -69 40 c-37 22 -70 40 -72 40 -2 0 -4 -375 -4 -834 l0 -834 -90 -52
-90 -51 -2 -1527 -3 -1526 -368 -213 -369 -213 -309 187 -309 186 0 1612 0
1612 -817 472 c-450 259 -823 475 -829 479 -9 5 -9 21 -1 62 6 30 12 56 13 58
1 2 365 -206 809 -462 444 -256 811 -466 816 -466 10 0 12 457 2 563 -5 61 -8
67 -28 67 -13 0 -28 6 -35 14 -6 8 -21 16 -33 18 -26 4 -36 43 -13 51 8 3 25
-2 38 -12 13 -10 33 -20 45 -23 20 -5 22 -1 28 66 4 39 4 121 1 181 -3 61 -5
116 -6 123 0 8 -7 11 -19 7 -10 -3 -24 1 -31 10 -7 8 -20 15 -29 15 -22 0 -41
19 -41 42 0 22 42 25 59 4 6 -8 23 -16 36 -19 23 -4 25 -1 26 37 0 22 1 59 1
81 2 113 -2 145 -19 145 -33 0 -103 41 -103 61 0 23 41 27 59 5 6 -8 22 -16
36 -18 23 -5 24 -2 30 66 4 39 4 121 1 181 -3 61 -5 115 -6 122 0 7 -7 10 -15
6 -9 -3 -23 1 -33 9 -9 8 -29 19 -44 26 -37 15 -39 52 -3 52 13 0 28 -6 32
-14 4 -7 20 -15 34 -18 l27 -5 4 81 c6 111 -3 181 -22 180 -8 0 -24 7 -35 17
-11 9 -29 19 -40 21 -12 2 -21 13 -23 26 -3 18 1 22 21 22 14 0 30 -6 36 -14
6 -8 22 -16 36 -18 23 -5 24 -3 31 80 3 46 4 108 1 137 l-5 53 144 83 c79 46
188 109 241 140 54 30 141 80 193 110 l95 55 0 524 0 523 -1745 1008 c-960
555 -1748 1008 -1753 1009 -4 0 -6 -957 -5 -2127 l3 -2127 208 -120 207 -119
0 -63 c0 -35 -3 -64 -7 -64 -5 1 -123 68 -263 149 l-255 149 -3 846 c-1 465
-4 846 -6 846 -2 0 -1830 -1064 -4063 -2364 l-4058 -2364 -2 -503 -3 -504
10281 -5935 c5655 -3264 10302 -5947 10328 -5962 l47 -27 9510 5538 9509 5539
3 500 2 499 -837 483 c-461 266 -890 513 -953 550 -63 37 -1719 993 -3680
2125 -1961 1132 -3596 2077 -3635 2100 -62 36 -70 44 -67 68 2 15 1 27 -2 27
-3 0 -43 -11 -88 -24 -173 -50 -265 -60 -528 -60 -262 0 -403 15 -645 70 -114
25 -335 91 -346 102 -4 4 -26 194 -50 422 l-43 416 -158 89 c-86 50 -158 94
-158 100 0 5 50 162 112 348 l111 339 -73 696 c-40 384 -73 698 -74 699 -1 1
-106 -476 -234 -1060z m-19099 -37 l337 -195 0 -232 0 -232 -182 106 c-101 58
-263 151 -360 207 l-177 101 -1 233 0 233 23 -13 c13 -7 175 -101 360 -208z
m625 -365 l49 -25 5 -62 c8 -84 3 -393 -6 -407 -10 -16 -37 -14 -79 8 -72 37
-68 23 -66 255 1 116 5 221 10 234 11 28 26 28 87 -3z m-615 -380 l327 -189 0
-232 0 -232 -360 206 -359 207 -1 233 0 234 33 -19 c17 -10 179 -104 360 -208z
m1057 113 c14 -13 34 -23 45 -23 13 0 20 -7 20 -20 0 -25 -31 -32 -53 -12 -9
8 -28 17 -42 19 -19 2 -26 10 -28 31 -4 34 22 37 58 5z m357 -208 c14 -11 29
-18 33 -15 4 3 13 -2 20 -10 10 -12 10 -18 0 -30 -17 -20 -33 -19 -55 5 -10
11 -26 20 -36 20 -22 0 -31 13 -23 34 8 22 31 20 61 -4z m349 -195 c4 -8 14
-15 23 -15 28 0 53 -24 45 -43 -7 -20 -37 -22 -53 -3 -6 7 -25 16 -41 20 -24
4 -30 11 -30 31 0 20 5 25 25 25 14 0 28 -7 31 -15z m-711 -15 c4 -6 22 -17
41 -25 25 -10 35 -20 32 -32 -4 -23 -41 -28 -58 -8 -7 8 -20 15 -29 15 -22 0
-41 19 -41 42 0 20 44 26 55 8z m-460 -40 c4 -6 21 -16 39 -24 31 -13 33 -18
38 -72 8 -80 3 -398 -6 -412 -11 -18 -45 -14 -77 9 -16 11 -29 17 -29 13 0 -4
-9 1 -21 12 -19 17 -20 27 -18 234 1 118 6 223 11 233 9 18 53 23 63 7z m1525
-156 c8 -7 27 -16 43 -19 29 -8 35 -23 15 -43 -16 -16 -21 -15 -48 8 -13 11
-31 20 -41 20 -23 0 -32 15 -24 40 6 20 27 18 55 -6z m-706 -19 c3 -8 17 -15
31 -15 33 0 45 -28 20 -46 -16 -12 -22 -11 -40 6 -12 11 -31 20 -43 20 -25 0
-34 12 -26 34 8 20 50 21 58 1z m-1436 -205 l352 -203 0 -229 c0 -125 -3 -228
-7 -228 -5 0 -165 92 -358 203 l-350 203 -3 233 c-1 128 1 231 5 228 5 -2 167
-95 361 -207z m1072 105 c7 -8 19 -15 27 -15 8 0 12 -4 9 -8 -3 -5 5 -8 17 -8
16 1 22 -5 22 -19 0 -25 -31 -32 -53 -12 -9 8 -29 17 -44 21 -21 5 -28 12 -28
31 0 29 30 35 50 10z m720 -100 c7 -8 20 -15 30 -15 23 0 42 -24 34 -44 -7
-18 -39 -22 -49 -6 -4 6 -22 17 -41 25 -42 17 -49 55 -10 55 13 0 29 -7 36
-15z m-354 -114 c13 -10 20 -22 16 -27 -4 -5 0 -3 9 4 13 10 19 9 29 -3 11
-13 10 -19 -4 -33 -13 -14 -19 -14 -34 -4 -9 7 -32 19 -49 27 -36 17 -36 16
-27 39 8 21 31 20 60 -3z m701 -90 c10 -11 29 -21 42 -23 31 -4 37 -21 15 -42
-15 -16 -18 -16 -38 3 -12 12 -29 21 -37 21 -27 0 -41 17 -34 39 8 26 29 27
52 2z m-355 -102 c2 -7 19 -17 38 -23 38 -12 45 -32 18 -49 -13 -9 -21 -7 -35
5 -10 8 -30 18 -45 22 -21 5 -28 12 -28 31 0 20 5 25 24 25 13 0 26 -5 28 -11z
m-706 -24 c9 -8 24 -15 33 -15 24 0 45 -25 37 -45 -7 -19 -40 -20 -55 -1 -6 7
-25 16 -41 20 -24 4 -30 11 -30 31 0 29 32 35 56 10z m-456 -40 c7 -8 20 -15
30 -15 36 0 42 -24 45 -209 2 -98 0 -203 -3 -233 -6 -45 -10 -53 -29 -56 -13
-2 -36 6 -52 17 -15 11 -31 18 -34 15 -3 -3 -13 5 -22 19 -14 21 -16 55 -14
229 1 111 5 213 10 226 10 26 50 30 69 7z m1513 -145 c14 -11 34 -20 45 -20
25 0 34 -12 26 -33 -9 -25 -33 -28 -51 -7 -10 11 -27 20 -40 20 -27 0 -34 10
-26 38 7 27 13 27 46 2z m-703 -23 c13 -9 33 -17 43 -17 26 0 34 -30 12 -46
-16 -12 -22 -11 -40 6 -12 11 -31 20 -43 20 -25 0 -35 14 -27 39 7 22 21 22
55 -2z m-1432 -207 l352 -203 0 -228 c0 -126 -3 -229 -7 -229 -5 1 -165 92
-358 203 l-350 203 -3 233 c-1 128 1 231 5 228 5 -2 167 -95 361 -207z m1074
107 c7 -6 27 -17 43 -22 20 -7 30 -17 30 -30 0 -25 -31 -32 -53 -12 -9 8 -29
17 -44 21 -21 5 -28 12 -28 31 0 28 28 35 52 12z m718 -102 c7 -8 20 -15 30
-15 10 0 23 -7 30 -16 11 -12 10 -18 -4 -32 -13 -14 -19 -14 -34 -4 -9 7 -32
19 -49 27 -40 19 -46 55 -9 55 13 0 29 -7 36 -15z m-360 -111 c8 -7 26 -14 40
-16 31 -4 38 -33 12 -47 -15 -8 -25 -6 -42 9 -13 11 -31 20 -41 20 -23 0 -32
15 -24 40 6 20 27 18 55 -6z m729 -100 c56 -29 59 -35 35 -59 -15 -15 -18 -15
-38 4 -12 12 -29 21 -37 21 -22 0 -37 19 -32 41 7 25 11 24 72 -7z m-373 -99
c9 -8 24 -15 33 -15 10 0 24 -7 31 -16 11 -12 10 -18 -4 -32 -13 -14 -20 -14
-34 -4 -9 6 -32 18 -49 26 -22 10 -33 22 -33 35 0 25 34 29 56 6z m-706 -20
c7 -8 20 -15 30 -15 10 0 23 -7 30 -15 23 -27 -22 -57 -47 -31 -4 4 -23 14
-40 21 -41 17 -47 55 -9 55 13 0 29 -7 36 -15z m-439 -48 c41 -22 44 -27 50
-74 8 -65 4 -407 -5 -422 -4 -6 -15 -11 -25 -11 -26 0 -108 48 -116 67 -9 26
-4 426 6 446 13 23 37 22 90 -6z m779 -152 c7 -8 27 -19 44 -23 21 -6 31 -14
31 -28 0 -24 -37 -31 -55 -9 -7 8 -23 15 -36 15 -28 0 -35 10 -27 38 6 26 25
28 43 7z m-343 -108 c4 -7 21 -17 38 -22 16 -6 31 -18 33 -27 4 -23 -35 -34
-56 -15 -9 8 -29 17 -44 21 -21 5 -28 12 -28 31 0 20 5 25 25 25 13 0 28 -6
32 -13z m-1241 -149 c47 -41 73 -99 74 -160 0 -82 -58 -117 -129 -78 l-39 23
-44 -26 c-27 -16 -49 -22 -57 -18 -9 6 -10 11 -2 15 17 11 13 54 -5 64 -9 5
-26 7 -36 4 -36 -9 -16 31 27 55 36 20 41 28 47 70 9 58 35 83 89 83 29 0 47
-8 75 -32z m1587 -58 c14 -11 35 -20 46 -20 26 0 38 -25 21 -45 -17 -20 -27
-19 -47 5 -10 11 -27 20 -40 20 -27 0 -36 14 -28 40 8 25 16 25 48 0z m-343
-225 c7 -8 20 -15 30 -15 10 0 23 -7 30 -16 11 -12 10 -18 -4 -32 -13 -14 -19
-14 -34 -4 -9 7 -32 19 -49 27 -40 19 -46 55 -9 55 13 0 29 -7 36 -15z m-571
-99 c55 -29 109 -145 96 -207 -7 -33 -48 -69 -77 -69 -11 0 -37 9 -58 21 l-37
21 -41 -26 c-47 -30 -85 -27 -57 5 10 11 14 25 10 38 -6 21 -38 36 -55 26 -5
-3 -10 2 -10 12 0 11 17 28 45 43 42 23 45 27 45 67 0 55 26 83 75 83 20 0 48
-6 64 -14z m918 -105 c10 -11 29 -21 42 -23 31 -4 37 -21 15 -42 -15 -16 -18
-16 -38 3 -12 12 -32 21 -44 21 -26 0 -35 14 -27 40 8 25 29 26 52 1z m-352
-101 c4 -6 22 -17 41 -25 19 -8 34 -21 34 -29 0 -22 -38 -30 -58 -13 -9 8 -29
17 -44 21 -21 5 -28 12 -28 31 0 20 5 25 24 25 14 0 28 -5 31 -10z m348 -210
c14 -11 35 -20 46 -20 29 0 39 -29 16 -46 -15 -11 -22 -10 -43 6 -13 11 -33
20 -43 20 -23 0 -32 15 -24 40 8 25 16 25 48 0z m-1565 -185 l272 -157 0 -64
c0 -35 -2 -64 -4 -64 -2 0 -140 79 -307 175 -190 110 -304 181 -303 190 0 8 1
38 2 66 l2 51 33 -20 c17 -11 155 -90 305 -177z m1222 -40 c7 -8 20 -15 30
-15 27 0 45 -27 31 -44 -13 -16 -33 -15 -53 1 -7 7 -26 16 -41 22 -35 14 -38
51 -3 51 13 0 29 -7 36 -15z m356 -207 c15 -13 35 -23 43 -23 23 0 25 -32 3
-44 -15 -8 -23 -6 -37 9 -10 11 -25 20 -34 20 -29 0 -44 16 -36 39 8 27 25 27
61 -1z m19967 -1106 c59 -474 79 -713 75 -902 -3 -163 -3 -166 -35 -231 -60
-121 -197 -248 -343 -318 -66 -31 -86 -36 -171 -39 -103 -4 -209 17 -291 59
-86 44 -189 163 -259 299 -33 65 -34 66 -37 225 -5 192 2 236 78 555 66 273
85 373 95 506 l7 91 58 -24 c150 -60 380 -72 575 -29 71 16 195 83 195 106 0
6 3 10 8 10 4 0 24 -138 45 -308z m-10302 -4453 c103 -10 276 -37 375 -59 l51
-11 -24 -97 c-13 -53 -26 -136 -30 -183 -5 -79 -4 -91 20 -143 89 -195 395
-339 722 -340 121 -1 134 1 187 26 70 32 139 102 178 177 l29 56 1 -147 c0
-169 -10 -230 -52 -311 -96 -181 -314 -249 -647 -202 -391 56 -1088 265 -1373
412 -156 80 -184 139 -173 356 9 157 26 210 89 283 79 90 199 150 354 178 96
18 162 19 293 5z"/>
<path d="M11383 19813 c-7 -2 -13 -9 -13 -14 0 -6 5 -7 11 -4 50 32 120 -85
72 -121 -22 -16 -8 -32 15 -18 37 24 22 96 -30 139 -30 26 -34 27 -55 18z"/>
<path d="M12073 19413 c-23 -9 -13 -23 11 -17 36 9 76 -34 76 -81 0 -22 -6
-38 -15 -41 -19 -8 -20 -24 -1 -24 8 0 21 9 29 21 20 28 7 73 -35 116 -31 33
-41 36 -65 26z"/>
<path d="M21740 23712 c-80 -46 -165 -96 -190 -110 -25 -14 -547 -316 -1160
-670 -613 -355 -1187 -687 -1275 -737 -135 -78 -764 -443 -875 -507 -19 -12
-55 -32 -80 -46 -25 -13 -70 -39 -100 -57 -96 -58 -492 -286 -575 -333 -44
-24 -92 -53 -107 -63 -14 -11 -28 -19 -31 -19 -3 0 -115 -64 -249 -142 -133
-77 -278 -161 -320 -185 -43 -24 -79 -47 -82 -51 -3 -5 4 -13 14 -19 15 -10
34 -2 119 48 l102 60 125 -72 c68 -39 127 -75 129 -80 3 -4 -51 -40 -120 -79
-68 -39 -127 -75 -130 -80 -9 -15 23 -62 55 -82 45 -27 1057 -611 1100 -634
19 -11 46 -27 60 -35 14 -9 149 -87 300 -174 319 -183 411 -236 575 -332 106
-62 321 -186 615 -355 52 -30 340 -197 640 -370 300 -173 565 -326 590 -340
25 -14 99 -57 165 -95 66 -39 281 -163 478 -277 l358 -207 267 154 c1489 858
1787 1030 1790 1033 2 1 -2 15 -10 30 -9 19 -50 49 -135 98 -67 39 -120 73
-118 77 2 3 61 38 130 78 l125 72 54 -30 c29 -17 59 -31 65 -31 25 0 8 20 -40
48 l-51 29 132 76 c130 75 132 76 162 61 16 -8 37 -14 46 -12 13 3 10 9 -15
24 l-31 20 34 22 c18 12 36 22 38 22 2 0 46 25 97 55 l93 55 60 -34 c34 -19
77 -37 96 -40 29 -6 21 1 -46 41 l-81 48 91 53 c50 28 109 63 132 76 l41 25
103 -59 c57 -33 106 -60 109 -60 3 0 17 -9 29 -18 l24 -18 -129 -74 c-70 -40
-130 -75 -132 -77 -3 -2 2 -11 11 -20 18 -17 50 0 483 252 83 48 161 94 175
101 14 7 367 211 784 452 653 376 761 442 767 465 4 15 4 27 -1 27 -4 0 -46
-22 -93 -50 -47 -27 -88 -50 -92 -50 -13 0 -255 141 -255 148 0 7 60 45 140
90 25 13 60 34 79 45 30 18 35 19 60 5 14 -9 53 -30 86 -48 33 -18 64 -36 70
-41 17 -17 36 -10 33 12 -2 16 -82 66 -323 206 -176 101 -342 197 -370 212
-27 15 -88 51 -135 78 -47 28 -105 62 -130 76 -53 30 -598 343 -620 356 -20
12 -1024 593 -1070 619 -50 28 -95 54 -665 384 -280 162 -530 306 -555 320
-25 14 -80 46 -123 72 -43 25 -80 46 -82 46 -2 0 -33 18 -69 40 -36 22 -68 40
-71 40 -2 0 -28 15 -57 33 -29 19 -78 47 -108 64 -30 17 -208 119 -395 228
-187 108 -351 203 -365 209 -23 12 -36 7 -170 -72z m286 -43 c68 -39 124 -76
124 -81 0 -5 -7 -11 -17 -15 -9 -4 -66 -35 -126 -70 -60 -35 -113 -63 -116
-61 -43 18 -251 144 -248 151 1 5 14 15 27 23 14 8 68 39 120 69 52 30 99 55
104 55 5 0 64 -32 132 -71z m-290 -171 c98 -57 122 -75 112 -84 -7 -7 -66 -42
-130 -79 l-117 -66 -123 71 c-68 40 -126 75 -130 78 -7 8 228 150 250 151 7 1
69 -31 138 -71z m570 9 c60 -35 118 -66 128 -70 26 -10 20 -15 -123 -97 l-124
-71 -128 73 c-71 40 -128 76 -126 80 3 10 239 147 253 148 6 0 60 -28 120 -63z
m-162 -244 c16 -9 8 -16 -59 -53 -67 -37 -80 -41 -101 -31 -34 15 -128 14
-168 -3 -31 -13 -36 -12 -80 15 -25 16 -49 29 -53 29 -5 0 -18 8 -30 18 -22
17 -21 18 110 93 l132 76 115 -67 c63 -37 123 -71 134 -77z m-698 65 c124 -72
124 -73 102 -90 -13 -9 -34 -23 -48 -30 -14 -7 -62 -34 -107 -61 l-83 -48
-112 65 c-168 96 -161 88 -102 121 27 15 83 47 124 71 41 24 81 44 88 44 7 0
69 -33 138 -72z m1152 11 c59 -34 115 -67 125 -74 20 -14 36 -2 -145 -109
l-98 -58 -133 78 -134 78 126 73 c69 39 132 72 139 72 8 1 62 -27 120 -60z
m-1448 -179 c69 -40 126 -73 128 -75 4 -4 -251 -148 -262 -148 -6 0 -68 33
-138 74 l-127 73 77 44 c42 25 102 59 132 77 30 19 57 32 60 30 3 -1 61 -35
130 -75z m604 -76 c-1 -72 8 -61 -105 -126 -52 -31 -31 -37 -202 62 -59 34
-106 64 -104 66 1 2 61 37 131 78 l129 74 76 -45 76 -44 -1 -65z m579 69 c62
-36 113 -66 115 -68 1 -1 -57 -36 -129 -78 l-132 -76 -41 23 c-103 59 -106 61
-99 76 9 19 9 90 0 110 -10 21 130 101 156 88 10 -5 68 -38 130 -75z m619
-118 c-48 -28 -108 -63 -133 -77 l-45 -27 -55 31 c-30 17 -89 51 -132 76 l-77
45 33 21 c50 32 68 43 119 70 26 14 61 34 78 45 l32 19 133 -76 133 -77 -86
-50z m-2080 -52 l117 -68 -32 -19 c-18 -10 -48 -27 -67 -38 -19 -11 -61 -36
-92 -54 l-57 -35 -135 77 -135 78 77 44 c162 94 176 101 191 92 9 -4 69 -39
133 -77z m586 -1 c62 -35 111 -67 108 -70 -3 -3 -63 -38 -132 -78 l-126 -72
-106 61 c-59 34 -119 68 -134 76 l-27 14 72 42 c194 114 191 113 212 102 11
-5 71 -39 133 -75z m1062 65 c19 -13 77 -47 128 -76 50 -29 92 -54 92 -56 0
-4 -53 -36 -125 -76 -27 -15 -69 -38 -93 -52 l-44 -25 -121 71 c-67 38 -126
73 -130 77 -5 4 40 36 100 71 59 35 117 69 128 75 28 17 26 17 65 -9z m680
-57 c69 -40 126 -73 127 -74 3 -2 -100 -63 -198 -117 l-65 -36 -131 76 -131
75 33 23 c19 13 36 23 39 23 3 0 47 25 97 55 51 30 95 53 98 51 3 -2 62 -36
131 -76z m-1296 -10 c30 0 67 5 81 10 23 9 37 4 101 -32 l74 -42 -88 -51 c-48
-28 -108 -63 -133 -77 l-45 -27 -130 76 c-71 41 -130 76 -131 77 -1 1 33 22
75 47 73 43 79 45 109 32 18 -7 57 -13 87 -13z m-1282 -175 l87 -51 -134 -77
c-134 -77 -134 -78 -161 -61 -14 10 -38 25 -53 33 -16 9 -62 36 -104 60 l-77
45 93 54 c50 29 110 64 132 77 l40 23 45 -26 c25 -14 84 -49 132 -77z m531 15
l128 -73 -93 -55 c-51 -30 -108 -63 -125 -73 l-32 -18 -131 76 c-72 41 -129
78 -126 81 12 11 241 140 246 138 3 -2 63 -36 133 -76z m560 16 c170 -98 164
-85 66 -142 -123 -71 -167 -94 -180 -94 -17 0 -259 143 -253 150 5 4 244 147
252 149 1 1 53 -28 115 -63z m632 -26 c66 -38 106 -63 103 -65 -4 -4 -251
-146 -258 -148 -3 -1 -64 32 -137 74 l-132 75 132 76 132 77 65 -36 c36 -20
79 -44 95 -53z m560 13 l134 -77 -132 -75 c-73 -42 -135 -75 -140 -73 -22 7
-255 147 -251 151 4 4 244 147 252 150 1 1 63 -34 137 -76z m531 32 c40 -25
76 -45 78 -45 3 0 28 -14 56 -32 l51 -31 -28 -17 c-15 -10 -74 -44 -131 -78
l-103 -60 -109 64 c-61 35 -122 70 -137 78 -26 13 -26 15 -9 22 11 4 71 38
135 75 64 38 117 68 119 69 2 0 37 -20 78 -45z m-3109 -217 l91 -53 -133 -77
-133 -76 -128 75 c-70 40 -129 75 -131 77 -2 2 56 37 128 79 l132 76 41 -24
c23 -13 82 -48 133 -77z m546 22 c70 -40 126 -74 124 -76 -2 -2 -61 -37 -131
-78 l-128 -74 -133 77 -132 76 130 77 c72 42 133 76 136 74 3 -1 64 -36 134
-76z m560 -1 c67 -39 125 -74 129 -78 5 -4 -48 -39 -116 -77 l-123 -71 -39 21
c-40 22 -217 126 -222 131 -3 3 40 28 148 88 30 16 64 36 75 44 11 7 21 13 23
13 2 0 58 -32 125 -71z m600 -9 l127 -73 -132 -76 -133 -77 -48 28 c-26 15
-49 28 -51 28 -1 0 -40 22 -85 49 l-82 49 133 76 c72 41 134 74 137 72 3 -1
63 -36 134 -76z m581 3 l133 -77 -36 -19 c-20 -11 -77 -44 -128 -73 -50 -30
-96 -54 -103 -54 -20 0 -260 144 -252 152 7 7 244 147 250 148 2 0 63 -35 136
-77z m611 -13 c17 -10 47 -27 68 -40 l38 -23 -133 -76 -133 -77 -115 66 c-63
37 -123 72 -133 77 -16 8 3 22 114 86 l133 76 66 -36 c36 -20 79 -44 95 -53z
m535 28 c60 -35 110 -66 110 -69 0 -7 -243 -149 -255 -149 -7 0 -172 91 -208
116 -17 11 -8 18 80 70 110 66 157 93 161 93 1 1 52 -27 112 -61z m276 -160
c68 -39 124 -75 124 -79 0 -4 -57 -40 -126 -79 -94 -54 -130 -70 -143 -64 -50
25 -241 139 -241 144 0 6 241 148 253 149 5 1 64 -31 133 -71z m-4093 14 c45
-26 93 -53 107 -60 14 -7 35 -21 48 -30 22 -17 22 -18 -107 -93 l-129 -77
-127 73 c-69 40 -127 76 -128 81 -2 5 236 151 251 153 2 1 40 -20 85 -47z
m640 -31 c70 -41 126 -75 125 -76 -2 -1 -62 -36 -134 -77 l-130 -75 -132 76
c-72 42 -128 79 -124 83 4 3 34 21 67 39 33 18 87 49 120 70 33 21 65 37 70
36 6 -1 67 -35 138 -76z m570 8 c67 -39 126 -74 130 -78 8 -8 -232 -151 -253
-151 -20 0 -261 143 -253 151 8 7 244 147 251 148 2 1 58 -31 125 -70z m578
-11 c71 -40 129 -75 129 -78 0 -5 -143 -91 -215 -131 -30 -16 -30 -16 -163 61
l-133 77 123 71 c68 39 125 71 127 71 1 1 61 -32 132 -71z m557 16 c53 -31
112 -65 130 -76 l34 -21 -84 -48 c-45 -27 -106 -61 -133 -75 l-51 -27 -127 73
c-70 39 -127 75 -127 79 0 3 28 22 62 41 34 19 91 52 127 72 36 21 67 38 69
38 1 0 46 -25 100 -56z m543 23 c31 -18 89 -50 128 -72 39 -22 71 -43 71 -46
0 -3 -32 -24 -72 -47 -69 -39 -72 -40 -101 -26 -45 24 -125 28 -175 11 -44
-15 -44 -15 -109 23 l-65 38 98 57 c55 32 113 66 129 76 17 10 32 19 35 19 3
-1 30 -15 61 -33z m643 -32 c58 -33 106 -63 106 -66 0 -4 -226 -137 -252 -147
-10 -4 -228 118 -228 127 1 8 253 151 262 148 4 -1 54 -29 112 -62z m272 -157
c68 -40 124 -75 124 -78 0 -5 -224 -137 -251 -148 -12 -5 -260 139 -257 149 3
9 237 148 251 149 5 0 64 -33 133 -72z m586 0 c70 -40 128 -75 128 -78 -1 -3
-59 -38 -131 -78 l-130 -74 -129 74 c-71 40 -130 75 -130 78 0 6 241 147 255
149 5 1 67 -32 137 -71z m-4631 -14 c112 -66 129 -78 113 -87 -11 -6 -68 -39
-128 -74 -60 -35 -113 -63 -119 -63 -14 0 -257 141 -257 149 1 5 248 150 257
151 1 0 61 -34 134 -76z m575 5 c68 -38 126 -74 129 -78 6 -11 -241 -153 -258
-149 -29 7 -256 143 -249 150 8 7 245 147 251 147 2 1 59 -31 127 -70z m521
37 c32 -18 91 -52 132 -76 l73 -42 -68 -40 -69 -40 -56 12 c-45 10 -68 10
-108 0 -28 -7 -53 -16 -56 -20 -5 -7 -165 76 -165 86 0 5 75 52 140 87 30 17
66 38 80 48 14 10 28 19 32 19 4 0 33 -15 65 -34z m591 -3 c37 -21 81 -46 97
-55 17 -10 45 -26 63 -35 38 -20 37 -30 -4 -52 -16 -9 -70 -40 -120 -69 -50
-28 -96 -52 -101 -52 -6 0 -59 28 -119 63 -60 35 -117 68 -128 74 -16 9 0 21
110 86 71 41 131 76 132 76 2 1 34 -16 70 -36z m554 2 c24 -13 80 -46 126 -72
45 -25 82 -49 82 -52 0 -7 -68 -50 -150 -94 -30 -16 -59 -34 -64 -38 -6 -5
-16 -9 -24 -9 -24 0 -262 144 -253 153 11 11 224 136 233 137 4 0 27 -11 50
-25z m603 -9 l60 -34 -3 -54 c-3 -40 0 -58 12 -67 9 -8 16 -17 16 -21 0 -9
-135 -90 -150 -90 -6 0 -21 6 -33 14 -23 15 -71 42 -169 98 -32 18 -58 35 -58
38 0 3 30 22 68 42 37 20 92 53 122 72 30 20 60 35 65 35 6 0 37 -15 70 -33z
m573 7 c95 -56 108 -63 140 -80 17 -9 32 -19 32 -22 0 -3 -59 -39 -131 -79
l-129 -73 -68 37 c-82 45 -77 41 -63 58 7 8 11 33 10 56 l-3 40 74 45 c41 24
79 44 83 44 5 1 29 -11 55 -26z m337 -195 c69 -40 125 -75 125 -78 0 -3 -59
-38 -130 -78 l-129 -72 -130 72 c-72 40 -130 75 -130 78 -1 7 242 148 257 149
6 1 68 -32 137 -71z m588 -2 l129 -74 -99 -57 c-54 -32 -113 -66 -131 -77
l-32 -20 -130 74 c-72 40 -130 76 -130 79 0 7 242 148 255 149 6 0 68 -33 138
-74z m583 2 c68 -40 124 -75 124 -78 0 -3 -26 -20 -58 -37 -31 -18 -79 -47
-107 -63 -94 -57 -85 -57 -166 -10 -41 24 -100 58 -132 78 l-59 34 129 74 c70
41 132 74 136 74 5 0 64 -33 133 -72z m-5270 17 c41 -25 77 -45 79 -45 2 0 26
-14 54 -31 l50 -32 -122 -69 c-67 -39 -127 -73 -134 -75 -13 -5 -263 134 -263
146 0 7 237 148 252 150 4 1 42 -19 84 -44z m631 -26 c68 -40 125 -75 127 -78
6 -8 -234 -146 -254 -146 -28 0 -260 139 -250 149 10 10 241 145 249 146 2 0
60 -32 128 -71z m540 26 l80 -45 -5 -49 c-3 -32 0 -51 8 -56 8 -5 -18 -25 -71
-56 -46 -27 -88 -49 -93 -49 -13 0 -256 141 -256 150 0 4 10 12 23 18 12 6 67
38 122 71 55 33 103 60 106 60 4 1 42 -19 86 -44z m556 16 c80 -43 181 -103
195 -114 9 -7 -7 -21 -59 -53 -39 -24 -73 -44 -75 -44 -1 0 -26 -13 -54 -30
-28 -16 -55 -30 -59 -30 -5 0 -39 17 -75 38 -49 27 -64 41 -59 52 8 17 10 98
3 119 -3 9 18 28 60 52 36 21 67 39 68 39 2 0 27 -13 55 -29z m665 -45 c67
-39 122 -73 122 -77 0 -5 -29 -24 -64 -44 l-64 -36 -34 21 c-42 26 -144 28
-195 3 -35 -16 -36 -16 -91 15 -31 17 -58 34 -59 39 -3 10 237 152 253 150 5
-1 65 -33 132 -71z m485 41 c104 -56 207 -119 207 -127 0 -11 -231 -141 -244
-138 -34 9 -254 144 -246 152 11 11 223 134 233 135 4 1 27 -9 50 -22z m701
-66 l68 -39 -93 -54 c-52 -30 -112 -65 -134 -78 l-40 -22 -75 43 c-41 23 -92
53 -114 67 l-38 24 77 44 c73 42 79 43 122 34 44 -10 104 -5 133 11 21 12 18
13 94 -30z m933 -207 c1 -5 -55 -42 -126 -82 l-128 -73 -132 77 c-118 69 -130
78 -114 90 10 7 21 14 25 14 3 0 46 24 95 52 48 29 97 58 108 63 16 9 42 -2
144 -61 69 -39 126 -76 128 -80z m1167 9 c16 -9 0 -21 -116 -87 l-134 -76
-133 76 c-72 42 -131 78 -129 79 2 2 29 17 61 35 32 17 90 51 130 74 l71 42
116 -66 c63 -37 123 -71 134 -77z m-1870 65 c69 -40 122 -76 118 -80 -4 -3
-62 -38 -130 -78 l-123 -71 -125 72 c-68 39 -127 75 -129 79 -5 8 232 148 252
149 6 1 68 -32 137 -71z m1071 58 c11 -7 36 -22 55 -33 141 -76 193 -113 161
-113 -5 0 -63 -32 -130 -71 l-121 -71 -47 28 c-27 15 -57 33 -68 39 -69 38
-136 78 -139 84 -6 9 233 150 254 151 9 0 24 -6 35 -14z m-5117 -71 c67 -38
122 -72 122 -75 0 -4 -229 -139 -252 -148 -10 -4 -33 8 -166 86 -120 70 -126
51 48 151 58 34 110 60 116 58 6 -1 65 -33 132 -72z m561 14 c58 -34 116 -68
129 -76 23 -14 20 -16 -98 -84 -67 -39 -128 -73 -135 -75 -12 -5 -265 135
-265 146 0 6 241 148 254 149 5 1 57 -27 115 -60z m609 -14 c67 -38 122 -74
122 -78 0 -4 -7 -10 -17 -14 -9 -4 -65 -35 -125 -70 -60 -35 -112 -63 -115
-63 -15 0 -254 143 -251 151 4 13 241 149 254 146 6 -1 65 -33 132 -72z m1105
38 l64 -37 -4 -40 c-4 -32 0 -46 17 -64 35 -37 12 -49 -42 -23 -58 28 -134 28
-200 -1 -40 -17 -54 -19 -67 -10 -9 7 -33 21 -54 32 -21 12 -37 25 -35 30 3 9
236 149 249 150 4 0 36 -17 72 -37z m620 -20 c56 -31 115 -65 130 -76 l28 -19
-78 -45 c-43 -25 -100 -58 -126 -74 -27 -16 -52 -29 -57 -29 -5 0 -48 23 -95
51 l-86 50 21 27 c14 17 20 37 18 59 -3 31 1 35 62 72 36 21 69 40 73 40 5 1
55 -25 110 -56z m581 -14 c58 -34 106 -64 106 -68 -1 -9 -239 -143 -248 -139
-34 15 -212 122 -212 127 0 9 220 139 237 140 6 1 59 -27 117 -60z m-1892 -10
c38 -10 59 -11 104 -1 56 11 58 11 120 -24 35 -20 64 -39 64 -44 0 -5 -57 -41
-126 -81 l-126 -72 -36 21 c-36 19 -58 32 -170 97 -29 17 -52 32 -52 35 0 11
146 89 160 86 8 -2 36 -10 62 -17z m2206 -172 l93 -54 -126 -72 -125 -73 -125
73 c-69 39 -127 75 -130 79 -2 3 51 38 118 77 l122 70 40 -23 c22 -12 82 -47
133 -77z m1120 29 c35 -20 65 -36 67 -36 2 0 20 -11 40 -24 l35 -24 -126 -73
c-70 -40 -132 -72 -138 -72 -6 0 -68 33 -138 73 l-128 73 133 77 132 77 30
-17 c17 -10 58 -34 93 -54z m1207 -21 c55 -31 101 -58 103 -60 2 -1 -56 -37
-129 -79 l-132 -76 -133 77 -133 76 132 77 132 77 30 -17 c17 -10 75 -43 130
-75z m-1779 14 c110 -63 143 -89 115 -89 -4 0 -63 -32 -130 -70 l-121 -71
-131 77 c-89 53 -127 80 -117 85 7 4 63 37 123 73 61 36 116 65 124 66 8 0 69
-32 137 -71z m1079 53 c17 -10 55 -32 85 -49 101 -56 130 -75 125 -83 -3 -5
-61 -40 -130 -79 l-124 -70 -132 76 c-89 52 -127 79 -117 84 7 4 63 37 123 73
61 36 117 65 125 65 8 1 29 -7 45 -17z m-5781 -26 c33 -18 92 -52 129 -74 68
-40 69 -41 45 -55 -84 -51 -130 -78 -181 -106 l-57 -33 -63 35 c-141 79 -196
112 -197 120 0 4 10 12 23 17 12 5 67 36 122 69 55 33 104 60 109 60 4 1 36
-14 70 -33z m652 -38 c68 -39 124 -76 124 -80 0 -5 -7 -11 -17 -15 -9 -4 -65
-35 -125 -70 -60 -35 -111 -63 -114 -63 -11 0 -254 145 -254 151 0 4 44 32 98
63 54 31 107 62 117 71 11 8 26 15 33 15 7 0 69 -32 138 -72z m585 0 c70 -40
125 -76 123 -80 -5 -8 -248 -148 -258 -148 -3 0 -34 17 -68 38 -35 21 -91 53
-125 72 -35 18 -63 36 -63 39 0 7 240 149 254 150 6 1 67 -31 137 -71z m584 1
c69 -40 124 -76 123 -80 -2 -5 -59 -40 -127 -79 -138 -79 -119 -78 -226 -16
-33 20 -81 48 -108 63 -26 14 -46 30 -45 35 3 8 238 147 251 148 4 0 63 -32
132 -71z m528 34 c62 -36 66 -40 67 -74 0 -25 8 -44 26 -62 23 -23 24 -26 7
-31 -10 -3 -36 3 -58 14 -67 34 -172 25 -220 -20 -21 -19 -21 -19 -55 0 -19
11 -50 28 -67 37 -18 9 -33 19 -33 23 0 3 26 20 58 38 138 78 171 97 178 105
13 13 30 8 97 -30z m1216 -27 l111 -64 -132 -77 -132 -76 -36 19 c-19 11 -52
29 -72 40 -20 12 -56 33 -79 47 l-42 27 129 74 c71 41 132 74 135 74 4 0 57
-29 118 -64z m-521 -36 c39 -24 72 -46 72 -49 0 -7 -21 -21 -79 -53 -20 -11
-66 -38 -103 -59 -36 -22 -69 -39 -72 -39 -5 0 -107 57 -154 87 l-23 14 26 31
c20 24 26 39 22 62 -3 19 1 35 10 41 7 5 62 10 121 9 l107 0 73 -44z m794
-121 c68 -40 124 -73 126 -74 2 -2 -56 -37 -129 -79 l-131 -77 -126 73 c-70
40 -125 78 -124 83 2 6 13 16 25 22 12 7 65 38 117 68 52 30 100 55 107 55 6
0 67 -32 135 -71z m561 -3 c43 -25 81 -46 85 -46 4 0 18 -9 31 -19 l23 -18
-103 -60 c-57 -32 -114 -65 -125 -73 -19 -12 -33 -6 -153 65 l-132 78 103 60
c57 32 112 65 123 72 23 15 24 14 148 -59z m634 -28 l92 -54 -127 -74 c-70
-40 -132 -73 -137 -73 -11 0 -266 145 -262 149 1 1 60 36 132 77 l129 75 41
-23 c22 -12 81 -47 132 -77z m561 14 c63 -35 110 -68 105 -72 -4 -4 -63 -39
-131 -78 l-122 -71 -51 29 c-27 17 -51 30 -53 30 -1 0 -39 22 -83 48 l-80 48
131 75 c106 61 135 73 151 66 11 -6 71 -39 133 -75z m614 -17 l87 -51 -127
-74 c-69 -40 -131 -73 -137 -73 -6 0 -68 33 -137 73 l-127 74 92 54 c51 30
110 65 132 77 l40 23 45 -26 c25 -14 84 -49 132 -77z m661 -45 c5 -4 -50 -42
-122 -84 l-131 -75 -76 44 c-42 25 -77 45 -79 45 -2 0 -27 14 -55 32 l-51 32
23 18 c13 10 26 18 29 18 3 0 52 27 108 59 l102 59 122 -70 c67 -39 126 -74
130 -78z m-7090 56 l129 -74 -74 -42 c-40 -24 -99 -58 -132 -77 l-58 -34 -129
73 c-71 40 -128 76 -126 80 3 10 239 147 252 148 6 0 68 -33 138 -74z m583 2
c68 -40 124 -75 124 -78 0 -3 -59 -38 -130 -78 l-129 -73 -43 24 c-65 37 -170
98 -197 114 l-23 15 33 20 c19 12 59 35 89 51 30 17 71 41 90 54 19 12 41 23
48 23 7 0 69 -33 138 -72z m588 -2 l128 -74 -73 -42 c-41 -24 -100 -58 -132
-77 l-58 -35 -92 52 c-51 29 -109 62 -129 74 -21 11 -37 24 -35 29 3 9 238
146 252 146 6 1 68 -32 139 -73z m481 61 c11 -8 45 -27 75 -44 81 -44 150 -87
150 -93 0 -3 -59 -38 -130 -78 l-129 -74 -123 72 c-68 39 -126 75 -130 78 -7
7 238 152 257 152 6 0 19 -6 30 -13z m631 -28 c65 -35 74 -44 74 -68 0 -16 10
-39 23 -53 l23 -25 -99 -57 -98 -57 -129 73 c-71 40 -130 76 -130 79 0 6 241
148 254 149 5 0 42 -18 82 -41z m1207 -20 c59 -34 105 -65 102 -69 -2 -4 -60
-40 -129 -79 l-124 -72 -44 26 c-23 13 -73 42 -110 62 -38 21 -68 40 -68 43 0
7 242 149 256 150 6 0 59 -28 117 -61z m-525 -34 c45 -26 82 -50 82 -54 0 -3
-59 -39 -130 -79 l-129 -74 -90 53 c-88 51 -90 54 -68 66 30 15 51 64 43 96
-8 34 17 42 122 40 84 -1 90 -3 170 -48z m839 -147 c78 -45 89 -54 75 -64 -40
-28 -237 -137 -247 -137 -5 0 -68 33 -138 72 l-128 73 46 29 c25 16 47 29 49
29 3 0 42 22 88 49 l83 49 40 -24 c22 -13 81 -48 132 -76z m550 20 c140 -81
138 -74 38 -127 -44 -23 -47 -24 -81 -8 -46 22 -129 21 -180 -2 l-40 -18 -63
37 c-35 20 -62 41 -60 46 4 12 230 143 248 144 7 0 69 -32 138 -72z m576 -155
l-126 -73 -134 77 c-84 48 -129 80 -121 84 7 4 64 36 126 72 l113 65 134 -76
133 -76 -125 -73z m485 204 c13 -10 23 -16 146 -86 43 -23 76 -44 74 -46 -2
-2 -61 -37 -132 -78 l-130 -76 -40 25 c-23 13 -82 48 -133 76 l-92 52 92 54
c51 30 110 64 132 77 38 22 56 23 83 2z m719 -79 c75 -43 89 -54 75 -62 -9 -5
-69 -40 -134 -77 l-116 -67 -128 74 c-71 41 -130 77 -132 79 -2 1 56 37 129
78 l133 76 40 -25 c23 -13 82 -48 133 -76z m524 36 c49 -29 103 -61 120 -70
l32 -16 -62 -39 c-34 -21 -64 -39 -67 -39 -2 0 -34 -18 -69 -39 l-65 -40 -137
79 c-109 63 -133 81 -117 86 10 4 57 30 104 58 129 77 144 84 159 78 8 -3 54
-29 102 -58z m626 -24 l113 -64 -78 -44 c-42 -25 -102 -59 -132 -78 l-55 -33
-50 28 c-50 28 -207 121 -213 126 -1 1 57 36 130 78 118 68 135 75 153 63 11
-7 71 -41 132 -76z m-7457 -78 c0 -4 -58 -40 -129 -80 l-129 -72 -132 77 c-89
51 -128 79 -118 84 7 4 67 39 132 76 l120 69 128 -74 c70 -41 128 -77 128 -80z
m1065 68 c1 0 28 -15 59 -34 l56 -34 -101 -58 c-186 -107 -160 -99 -216 -66
-26 16 -85 50 -131 77 l-83 48 33 20 c18 11 58 34 88 50 30 17 75 43 100 57
l45 27 73 -44 c41 -24 75 -43 77 -43z m1268 -57 c16 -8 -2 -21 -109 -83 -70
-41 -135 -73 -143 -73 -9 1 -57 26 -108 57 -51 30 -107 63 -124 71 l-31 17
133 77 134 77 115 -66 c63 -37 123 -71 133 -77z m1140 6 c-4 -4 -63 -39 -131
-78 l-123 -70 -114 66 c-103 59 -113 67 -97 79 9 7 20 14 24 14 4 0 47 24 95
52 48 29 97 57 108 63 17 9 39 0 133 -54 62 -35 109 -67 105 -72z m-3008 59
c68 -40 121 -76 117 -79 -4 -4 -62 -39 -130 -78 l-123 -72 -125 72 c-69 40
-127 75 -129 79 -5 8 232 148 253 149 6 1 68 -32 137 -71z m1170 0 c69 -40
121 -76 117 -79 -4 -4 -62 -39 -129 -78 l-122 -71 -103 58 c-140 80 -175 102
-162 102 6 0 65 31 130 70 66 38 125 69 132 70 7 0 69 -32 137 -72z m1208 -21
c102 -60 108 -46 -61 -143 l-112 -65 -123 72 c-67 39 -126 74 -130 78 -5 5 35
33 87 62 l96 54 77 -3 c72 -4 84 -8 166 -55z m890 -229 c-24 -16 -45 -28 -48
-28 -2 0 -42 -22 -88 -49 l-85 -49 -127 73 c-69 40 -126 76 -126 80 0 7 70 50
205 125 l48 28 132 -77 133 -76 -44 -27z m492 105 c15 -10 19 -22 16 -54 -2
-28 3 -47 15 -60 15 -17 15 -19 0 -25 -9 -3 -34 1 -56 10 -58 23 -128 20 -182
-7 l-46 -23 -70 40 -70 41 132 76 131 77 55 -31 c30 -17 64 -36 75 -44z m632
-25 l92 -53 -54 -31 c-65 -36 -69 -40 -61 -53 4 -6 34 6 74 29 67 39 67 39 97
22 16 -10 76 -44 132 -77 l103 -59 -88 -51 c-48 -28 -107 -63 -132 -77 l-45
-26 -90 52 c-55 33 -96 51 -108 48 -14 -4 2 -17 63 -53 46 -26 87 -52 92 -57
6 -6 -12 -22 -49 -42 -71 -41 -66 -37 -58 -50 6 -10 58 14 136 63 12 7 36 -3
100 -40 46 -28 106 -62 132 -77 l49 -28 -134 -77 -133 -77 -82 48 c-76 45
-113 58 -113 41 0 -5 36 -28 80 -53 44 -25 80 -47 80 -50 0 -3 -57 -39 -127
-79 l-127 -74 -51 27 c-27 14 -88 48 -134 75 l-83 48 63 38 c114 67 113 67 99
75 -8 5 -44 -11 -96 -41 -45 -27 -88 -49 -94 -49 -6 0 -49 23 -96 50 -80 47
-114 60 -114 42 0 -4 41 -31 91 -60 l91 -54 -128 -74 c-71 -40 -133 -74 -137
-74 -5 0 -49 24 -98 52 l-90 53 29 12 c45 18 75 62 69 99 -4 26 -1 34 19 45
17 9 21 15 12 20 -6 4 -20 3 -29 -2 -13 -6 -30 -3 -58 12 -78 40 -210 21 -248
-37 -12 -20 -18 -21 -39 -12 -31 14 -30 20 5 41 37 22 58 70 43 102 -17 38 5
49 71 35 30 -6 66 -8 81 -4 18 4 37 -1 61 -15 43 -25 45 -25 45 -6 0 8 -9 19
-20 25 -20 11 -20 12 9 35 34 29 46 67 30 96 -8 17 -8 23 1 29 20 13 212 -1
237 -16 28 -18 45 3 18 22 -18 13 -18 15 4 38 21 22 26 51 19 101 -3 19 3 20
112 20 63 0 123 -4 133 -8 27 -12 44 3 22 19 -18 13 -18 14 0 34 13 15 16 30
13 63 l-5 44 71 41 70 40 41 -24 c22 -13 81 -48 132 -76z m560 -3 l103 -59
-63 -36 c-34 -20 -92 -53 -128 -73 l-65 -37 -45 28 c-24 16 -69 42 -99 59 -30
16 -70 39 -87 50 l-33 20 33 16 c17 9 39 21 47 27 19 12 117 69 150 86 21 12
29 11 55 -4 16 -10 76 -44 132 -77z m546 24 c67 -39 125 -74 130 -78 7 -7
-233 -151 -253 -151 -21 0 -261 143 -253 151 7 7 245 148 251 149 1 0 57 -32
125 -71z m625 -23 c56 -32 101 -60 100 -61 -2 -1 -62 -36 -134 -77 l-131 -75
-54 32 c-30 18 -89 53 -132 77 l-78 45 133 76 133 76 30 -17 c16 -10 76 -44
133 -76z m521 38 c152 -90 161 -95 161 -99 0 -3 -30 -21 -140 -83 -25 -13 -57
-33 -72 -43 -14 -11 -34 -19 -43 -19 -25 0 -267 142 -258 151 8 8 245 147 252
148 2 1 47 -24 100 -55z m624 -24 l128 -73 -103 -60 c-57 -32 -116 -67 -132
-77 -32 -19 -19 -25 -229 97 l-67 39 132 76 c73 42 135 75 138 74 3 -2 62 -36
133 -76z m-7535 -27 c41 -24 78 -43 82 -43 5 0 11 -4 14 -9 6 -9 -238 -154
-258 -154 -6 0 -68 33 -138 73 l-127 73 77 45 c42 25 102 60 132 78 l54 32 46
-26 c25 -14 78 -45 118 -69z m1167 2 c55 -31 101 -58 103 -60 5 -4 -250 -148
-262 -148 -6 0 -68 33 -138 73 l-126 74 131 76 132 77 30 -17 c17 -10 75 -43
130 -75z m676 -71 c-9 -7 -38 -24 -64 -39 -47 -26 -50 -26 -88 -11 -53 21
-145 21 -189 -2 l-35 -17 -68 39 c-37 21 -67 40 -65 41 2 2 61 36 131 77 l129
75 132 -76 c111 -63 130 -78 117 -87z m469 86 c69 -40 126 -73 128 -75 2 -1
-56 -37 -129 -79 l-132 -76 -133 77 -133 77 109 62 c59 34 118 69 131 77 12 9
25 15 28 13 3 -2 62 -36 131 -76z m663 -68 c-10 -8 -43 -27 -73 -43 -30 -16
-73 -40 -95 -54 -82 -51 -63 -54 -223 39 l-83 48 35 24 c19 13 37 24 40 24 3
0 33 17 68 37 133 79 107 79 235 4 102 -59 112 -67 96 -79z m-3597 73 c60 -35
116 -68 123 -73 14 -8 -73 -65 -216 -144 l-32 -18 -131 76 c-72 42 -130 78
-128 80 15 14 247 143 259 144 9 0 65 -29 125 -65z m1122 28 c37 -21 81 -46
97 -55 17 -10 45 -26 63 -35 l32 -17 -92 -54 c-51 -30 -112 -65 -135 -78 -48
-27 -29 -34 -186 60 -43 25 -81 46 -85 46 -5 0 -13 5 -20 12 -9 9 -3 17 23 35
19 13 36 23 39 23 3 0 29 15 58 33 82 50 112 66 126 66 8 1 44 -16 80 -36z
m2554 -122 c18 -10 68 -39 111 -65 43 -25 81 -46 86 -46 5 0 14 -6 20 -14 9
-11 -13 -27 -113 -85 -68 -39 -130 -71 -136 -71 -7 0 -44 18 -82 40 -39 22
-71 40 -74 40 -9 0 -90 56 -93 64 -2 7 212 142 246 155 1 1 17 -7 35 -18z
m636 -30 c68 -40 72 -44 72 -78 0 -20 7 -45 16 -55 16 -16 16 -18 0 -24 -9 -3
-34 1 -56 10 -70 28 -161 17 -206 -25 l-23 -21 -58 33 c-31 19 -66 37 -77 42
-10 4 -17 9 -14 12 12 12 263 153 268 151 3 -2 38 -22 78 -45z m1792 -37 l132
-76 -44 -26 c-24 -13 -76 -44 -117 -68 -40 -24 -81 -44 -91 -44 -9 0 -58 25
-108 55 -50 30 -95 55 -99 55 -5 0 -19 9 -32 19 l-23 18 108 64 c91 53 125 72
141 78 1 1 61 -33 133 -75z m522 36 c39 -22 72 -40 74 -40 6 0 114 -70 114
-74 0 -6 -248 -146 -259 -146 -11 0 -25 7 -170 93 l-93 55 73 42 c41 24 99 58
129 76 30 18 57 33 59 33 2 1 35 -17 73 -39z m640 -31 c68 -39 126 -73 130
-77 8 -8 -237 -152 -258 -152 -8 0 -38 15 -67 33 -29 18 -83 51 -120 71 -49
28 -65 42 -58 49 9 9 241 146 248 147 1 0 58 -32 125 -71z m590 -1 c70 -40
128 -76 128 -79 0 -8 -243 -149 -257 -149 -6 0 -59 28 -119 63 -60 35 -117 68
-127 74 -16 8 -6 18 75 65 51 30 109 64 128 76 19 11 37 21 39 21 3 1 62 -32
133 -71z m517 38 c31 -18 89 -52 129 -75 l73 -43 -71 -44 c-40 -24 -74 -44
-76 -44 -1 0 -26 -13 -54 -30 -28 -16 -55 -30 -60 -30 -23 0 -260 144 -252
152 10 10 244 147 251 148 2 0 29 -15 60 -34z m-8639 -65 c58 -34 104 -64 103
-67 -1 -4 -59 -39 -129 -80 l-127 -73 -41 25 c-23 13 -82 48 -133 76 l-91 52
131 77 c122 70 134 75 157 63 14 -7 72 -40 130 -73z m607 -13 l91 -54 -130
-74 c-71 -41 -135 -74 -140 -72 -6 2 -53 27 -105 57 -52 30 -97 55 -100 55 -3
0 -15 8 -28 18 l-23 19 131 76 131 76 40 -24 c23 -13 82 -48 133 -77z m546 22
c70 -40 124 -76 120 -81 -4 -4 -63 -39 -131 -77 l-124 -70 -132 76 -133 77
131 76 c72 42 133 75 136 74 3 -1 63 -35 133 -75z m592 -2 c33 -19 74 -44 92
-55 l32 -19 -73 -42 -74 -42 -42 15 c-52 18 -103 18 -155 0 -38 -14 -40 -13
-112 27 -40 23 -72 43 -70 44 1 1 60 36 132 77 l129 75 41 -23 c22 -12 67 -38
100 -57z m587 -40 c-3 -24 2 -47 12 -63 16 -24 16 -24 -69 -74 l-85 -50 -134
78 -135 78 61 33 c34 18 93 51 132 75 l71 42 75 -40 75 -40 -3 -39z m595 32
c62 -35 112 -65 110 -66 -1 -1 -29 -18 -61 -37 l-60 -35 -28 21 c-45 34 -149
36 -210 4 -56 -28 -78 -22 -53 16 10 16 15 40 13 64 -3 37 -2 39 67 80 61 36
73 40 90 29 11 -7 71 -41 132 -76z m570 -98 c-51 -29 -110 -64 -132 -77 l-40
-23 -107 62 c-58 33 -106 66 -106 71 -1 6 56 42 124 81 l125 72 114 -66 114
-66 -92 -54z m170 10 c27 -16 85 -50 131 -77 l82 -47 -45 -29 c-25 -16 -48
-29 -51 -29 -2 0 -21 -10 -42 -23 -20 -13 -58 -35 -83 -50 l-46 -26 -34 23
c-19 12 -59 36 -89 53 -30 17 -74 41 -97 55 l-43 24 133 77 c72 42 133 77 134
77 2 0 24 -13 50 -28z m619 -19 c76 -44 83 -51 84 -79 0 -17 7 -37 15 -44 11
-10 12 -16 4 -26 -9 -11 -16 -11 -40 1 -70 37 -171 27 -228 -21 l-31 -26 -75
43 c-41 24 -72 45 -69 48 6 6 246 149 253 150 2 1 41 -20 87 -46z m1804 -29
c72 -42 130 -77 128 -79 -4 -4 -145 -87 -200 -118 -26 -15 -52 -27 -59 -27 -6
0 -68 32 -137 72 l-125 72 29 23 c16 13 32 23 36 23 4 0 49 25 100 55 51 30
94 55 95 55 1 0 61 -34 133 -76z m566 -6 c69 -39 126 -74 128 -77 2 -3 -51
-38 -118 -77 l-122 -71 -120 69 c-65 38 -125 73 -132 77 -15 8 3 21 118 84 30
17 69 39 85 49 17 10 32 18 34 18 1 0 59 -32 127 -72z m592 -3 c67 -38 122
-73 122 -76 0 -6 -130 -85 -211 -127 l-45 -24 -45 24 c-99 53 -209 120 -209
126 0 4 35 27 77 52 42 25 97 57 122 72 25 15 51 26 57 25 6 -1 65 -33 132
-72z m495 52 c76 -41 208 -120 212 -126 4 -7 -227 -143 -251 -149 -7 -2 -70
30 -140 71 -124 74 -126 75 -103 90 37 23 234 137 237 137 2 0 22 -10 45 -23z
m675 -52 c67 -38 122 -73 122 -77 0 -7 -242 -148 -255 -148 -14 0 -255 143
-255 151 0 5 26 22 58 39 31 16 86 47 122 69 36 22 70 39 76 38 6 -1 65 -33
132 -72z m568 10 c52 -30 99 -55 103 -55 4 0 15 -8 24 -18 16 -17 11 -22 -106
-88 -67 -38 -129 -69 -137 -69 -20 0 -259 138 -254 146 2 4 26 20 52 34 26 15
67 39 92 53 25 14 59 34 75 44 36 21 30 23 151 -47z m-9269 -40 l103 -59 -88
-51 c-198 -116 -174 -106 -208 -85 -16 10 -75 44 -131 77 l-103 59 133 77 132
76 30 -17 c16 -10 76 -44 132 -77z m547 23 c70 -40 126 -77 126 -83 -1 -12
-229 -145 -249 -145 -18 0 -263 142 -256 148 4 4 233 142 252 151 0 1 58 -32
127 -71z m634 -28 c84 -47 92 -53 75 -65 -20 -14 -235 -136 -244 -138 -3 -1
-65 32 -137 73 l-130 75 26 16 c15 9 74 44 131 77 l105 62 40 -24 c23 -13 83
-47 134 -76z m485 58 c40 -23 74 -43 75 -44 2 -1 -2 -18 -8 -36 -11 -28 -10
-39 3 -65 l16 -31 -81 -46 c-80 -45 -81 -45 -107 -27 -14 10 -72 44 -129 76
-56 32 -100 60 -97 64 5 5 244 147 253 150 2 1 36 -18 75 -41z m650 -38 c70
-40 126 -74 125 -75 -2 -2 -61 -37 -132 -78 l-128 -74 -80 45 c-61 35 -78 48
-72 61 14 31 16 81 5 95 -9 11 3 23 66 59 43 25 80 44 83 42 3 -1 62 -35 133
-75z m1127 27 c47 -26 96 -56 108 -66 l24 -17 -125 -72 c-68 -40 -130 -72
-136 -72 -10 0 -126 63 -140 76 -2 2 9 18 24 35 20 25 25 40 21 61 -5 25 0 31
62 67 37 22 69 39 72 38 3 -1 43 -24 90 -50z m-672 -16 c26 0 56 4 67 8 32 13
65 -15 65 -56 0 -23 8 -42 24 -58 l24 -24 -36 -22 c-21 -12 -62 -37 -93 -54
l-57 -33 -128 74 c-70 41 -130 76 -131 78 -2 2 35 26 83 54 72 41 92 48 111
41 14 -5 45 -9 71 -8z m927 -132 c50 -29 107 -61 127 -73 43 -24 44 -33 2 -55
-16 -9 -70 -40 -120 -69 -50 -28 -95 -52 -100 -52 -5 0 -67 33 -137 74 l-129
74 129 75 c70 41 130 76 133 76 3 1 46 -22 95 -50z m538 27 c23 -13 63 -36 90
-51 27 -16 47 -34 47 -44 0 -9 7 -26 15 -37 8 -10 15 -22 15 -25 0 -16 -32
-17 -62 -1 -43 22 -142 21 -185 -2 -18 -9 -40 -27 -48 -40 l-16 -24 -79 46
c-52 30 -76 50 -70 56 9 9 241 145 248 146 2 0 22 -11 45 -24z m2421 -45 c65
-39 123 -74 127 -78 8 -8 -227 -153 -248 -153 -10 0 -152 79 -232 127 l-33 21
128 76 c71 42 131 76 134 76 3 0 59 -31 124 -69z m479 47 c12 -7 29 -18 37
-24 8 -6 40 -25 70 -41 89 -49 120 -68 120 -73 0 -6 -182 -113 -222 -131 -24
-11 -36 -6 -152 61 -69 40 -126 75 -126 79 1 7 230 140 243 141 4 0 17 -6 30
-12z m684 -59 c68 -40 122 -77 120 -82 -2 -6 -10 -14 -18 -19 -8 -4 -61 -35
-119 -68 -58 -33 -108 -60 -112 -60 -3 0 -44 21 -90 48 -46 26 -94 53 -108 60
-40 21 -66 44 -55 49 6 2 62 35 125 73 63 37 119 69 124 69 5 1 65 -31 133
-70z m591 -4 c67 -38 122 -72 122 -75 0 -5 -192 -119 -241 -144 -13 -6 -49 10
-144 64 -69 40 -125 76 -123 81 4 13 241 149 254 146 6 -1 65 -33 132 -72z
m583 3 c70 -40 128 -75 128 -78 1 -8 -258 -152 -267 -148 -23 8 -252 144 -252
148 0 6 241 147 254 149 4 1 66 -32 137 -71z m-8731 -14 l131 -76 -35 -24
c-19 -13 -37 -24 -40 -24 -3 0 -43 -22 -90 -50 -47 -27 -90 -50 -97 -50 -23 0
-260 143 -251 152 7 7 242 147 249 148 1 0 61 -34 133 -76z m586 0 l133 -77
-127 -75 c-70 -41 -131 -74 -137 -75 -5 0 -61 30 -123 67 -62 36 -117 66 -122
66 -44 0 20 47 180 133 19 11 39 23 45 28 5 5 11 9 14 9 2 0 64 -34 137 -76z
m576 5 c67 -39 126 -74 130 -78 5 -4 -18 -22 -50 -40 -148 -87 -192 -111 -203
-111 -21 0 -260 143 -252 151 6 6 242 147 250 149 0 0 57 -32 125 -71z m1171
0 c67 -39 125 -74 130 -78 4 -4 -52 -41 -125 -83 -132 -76 -132 -76 -157 -59
-15 10 -72 44 -129 76 -57 32 -100 61 -95 66 7 7 245 148 251 149 1 0 57 -32
125 -71z m618 -19 l71 -42 -88 -52 c-172 -101 -171 -101 -196 -88 -31 15 -135
74 -176 99 l-33 20 95 54 c94 54 95 54 175 52 74 -1 85 -4 152 -43z m-1301 5
c25 4 53 11 62 16 14 7 37 -2 98 -37 45 -25 80 -47 78 -49 -2 -1 -62 -36 -134
-77 l-131 -75 -54 32 c-30 18 -89 53 -132 77 l-78 45 78 45 77 45 46 -14 c28
-9 62 -12 90 -8z m1474 -105 c38 -22 95 -54 127 -71 33 -18 59 -35 59 -39 0
-5 -223 -137 -252 -148 -14 -6 -268 142 -259 151 9 9 244 146 251 147 3 0 36
-18 74 -40z m610 -14 c60 -35 97 -64 106 -83 8 -15 16 -30 17 -33 2 -3 -10
-13 -26 -23 -26 -15 -32 -15 -65 -2 -67 28 -159 15 -205 -29 l-26 -25 -77 47
c-43 26 -78 50 -78 53 0 4 22 18 48 32 27 14 82 46 123 70 41 25 78 46 82 46
5 1 50 -23 101 -53z m2354 -7 c59 -34 118 -68 131 -76 23 -15 21 -16 -105 -89
-71 -41 -132 -74 -137 -74 -10 0 -257 144 -257 150 0 4 250 150 258 150 2 0
51 -28 110 -61z m610 -13 c67 -39 122 -73 122 -76 0 -3 -57 -39 -126 -79 -106
-61 -130 -71 -148 -63 -11 5 -72 39 -134 75 l-114 65 99 58 c151 90 157 93
169 91 5 -1 65 -33 132 -71z m567 -7 c69 -39 125 -75 125 -78 0 -10 -238 -144
-248 -139 -26 10 -252 143 -252 147 1 7 230 139 243 140 4 1 63 -31 132 -70z
m592 -4 c68 -38 123 -73 123 -76 0 -3 -15 -13 -32 -22 -18 -9 -46 -25 -63 -35
-16 -9 -60 -35 -97 -55 l-68 -38 -129 73 c-72 40 -131 75 -131 78 0 8 254 150
265 148 6 -2 65 -34 132 -73z m579 4 c68 -39 124 -74 124 -78 0 -9 -249 -153
-259 -149 -28 11 -251 143 -251 148 0 7 240 149 253 150 5 0 65 -32 133 -71z
m589 -1 c68 -40 124 -75 125 -78 0 -6 -252 -150 -262 -150 -3 0 -36 18 -72 40
-36 22 -68 40 -71 40 -2 0 -30 16 -61 36 l-56 36 128 74 c71 41 132 74 137 74
4 0 63 -33 132 -72z m-9316 -14 l132 -76 -133 -77 -133 -77 -127 74 c-71 41
-128 77 -128 80 0 5 248 151 257 152 1 0 60 -34 132 -76z m567 12 c60 -35 117
-70 127 -78 16 -12 6 -20 -108 -86 -69 -40 -132 -72 -139 -70 -29 7 -255 143
-248 150 10 9 245 147 253 148 3 0 55 -29 115 -64z m490 55 c5 -4 34 -22 64
-38 30 -17 83 -47 118 -67 l63 -37 -78 -47 c-43 -26 -103 -60 -134 -76 l-56
-29 -126 72 c-70 41 -127 76 -127 80 0 3 28 22 62 41 222 126 199 115 214 101z
m690 -62 c68 -38 126 -74 128 -78 5 -8 -235 -151 -252 -151 -10 0 -57 26 -196
108 -62 36 -67 41 -50 51 62 38 240 140 243 141 2 0 59 -32 127 -71z m480 62
c5 -4 34 -22 64 -38 30 -17 84 -47 118 -68 74 -43 83 -30 -86 -125 -128 -71
-109 -70 -217 -7 -22 12 -66 38 -97 56 -32 18 -58 36 -58 39 0 4 44 32 97 62
53 30 110 63 127 73 35 20 39 20 52 8z m629 -26 c33 -19 81 -47 108 -61 26
-15 47 -31 47 -35 0 -7 -208 -131 -242 -144 -18 -7 -241 116 -230 127 10 9
246 147 252 147 3 0 32 -15 65 -34z m1695 8 c61 -6 136 -43 145 -72 3 -10 14
-26 25 -36 19 -17 19 -19 2 -31 -23 -17 -6 -32 19 -16 38 24 116 4 222 -56 53
-31 97 -59 97 -62 0 -5 -154 -98 -221 -133 l-36 -19 -98 56 c-60 35 -107 56
-122 54 -18 -2 1 -17 82 -62 58 -33 105 -63 105 -67 0 -3 -12 -13 -27 -20 -16
-8 -74 -40 -130 -72 l-103 -59 -86 50 -86 50 31 16 c43 23 64 59 58 98 -4 28
0 37 26 60 28 24 29 27 12 28 -11 0 -30 -7 -43 -15 -19 -14 -25 -14 -54 1 -71
38 -204 17 -241 -37 -13 -18 -18 -19 -37 -9 l-22 12 30 28 c37 34 47 66 32
105 -11 30 -10 31 33 56 13 7 28 7 49 0 17 -6 43 -11 57 -11 14 0 49 -14 76
-30 56 -33 65 -36 65 -17 0 7 -16 21 -35 31 l-35 19 37 21 c49 28 70 69 55
108 -8 23 -7 30 6 38 10 5 26 8 37 5 11 -3 45 -8 75 -12z m-1374 -194 c68 -38
126 -74 128 -78 3 -4 -14 -18 -37 -30 -23 -12 -81 -45 -129 -73 -48 -27 -91
-48 -96 -46 -27 10 -252 144 -252 149 0 4 22 18 48 32 27 14 82 46 123 70 41
25 78 46 83 46 5 1 64 -31 132 -70z m551 21 c69 -40 89 -56 94 -78 4 -15 10
-34 13 -43 5 -10 -1 -19 -16 -27 -13 -6 -50 -28 -83 -47 -108 -64 -89 -66
-229 15 -70 40 -125 77 -124 82 3 8 237 146 250 147 4 1 47 -22 95 -49z m1795
-22 c70 -40 128 -75 128 -78 0 -3 -58 -38 -130 -78 l-130 -74 -62 35 c-128 71
-198 112 -198 117 0 3 28 21 62 40 34 19 91 52 127 72 36 21 68 38 71 38 2 0
62 -33 132 -72z m483 59 c11 -8 45 -27 75 -44 83 -45 150 -87 150 -94 0 -6
-245 -149 -255 -149 -10 0 -255 144 -255 150 0 7 242 149 255 150 6 0 19 -6
30 -13z m687 -59 c70 -40 128 -75 128 -78 0 -3 -37 -26 -83 -52 -60 -34 -77
-48 -65 -53 10 -4 46 11 96 39 43 25 82 46 86 46 11 0 256 -144 256 -150 0 -4
-196 -121 -241 -143 -12 -7 -39 4 -98 38 -56 32 -86 44 -93 37 -6 -6 15 -24
66 -53 41 -23 73 -46 71 -49 -3 -4 -61 -40 -129 -79 l-125 -72 -108 62 c-177
101 -167 84 -82 135 55 32 69 45 56 50 -11 4 -41 -9 -83 -35 -37 -23 -72 -41
-78 -39 -24 7 -256 143 -253 150 1 4 58 39 127 79 l124 71 41 -21 c22 -11 57
-30 78 -43 27 -16 40 -19 48 -11 8 8 -9 22 -60 49 -39 22 -71 41 -71 44 1 5
251 150 259 150 3 0 62 -33 133 -72z m519 37 c33 -19 62 -35 63 -35 13 0 121
-73 121 -81 0 -6 -20 -22 -45 -36 -25 -14 -80 -45 -124 -70 -66 -38 -82 -43
-100 -34 -25 13 -77 42 -174 100 l-74 43 44 23 c24 13 81 46 128 74 47 28 89
50 93 51 5 0 36 -16 68 -35z m642 -49 l129 -74 -99 -57 c-54 -32 -110 -64
-124 -73 -30 -17 -16 -22 -183 73 -58 33 -106 62 -106 65 1 7 232 139 245 139
6 1 68 -32 138 -73z m584 2 c67 -40 123 -75 123 -78 0 -3 -59 -38 -130 -79
l-129 -73 -33 20 c-18 11 -77 45 -131 77 l-99 57 129 74 c70 41 132 74 137 74
5 0 65 -32 133 -72z m546 23 c45 -26 101 -60 125 -73 l44 -26 -59 -34 c-32
-20 -91 -54 -131 -77 l-73 -43 -129 74 c-71 40 -130 75 -130 78 0 8 243 149
258 150 7 0 50 -22 95 -49z m-8698 -32 c69 -40 127 -75 130 -79 2 -4 -8 -13
-23 -21 -14 -8 -71 -40 -127 -71 -55 -32 -103 -58 -108 -58 -11 0 -257 143
-257 150 0 4 250 150 258 150 1 0 58 -32 127 -71z m594 -5 c124 -72 130 -77
109 -88 -13 -7 -72 -41 -132 -75 -90 -52 -112 -61 -130 -53 -11 5 -72 39 -134
75 l-114 65 99 57 c54 32 112 66 128 76 17 10 33 19 36 19 3 0 65 -34 138 -76z
m560 15 c175 -101 165 -84 75 -137 -44 -26 -104 -60 -134 -76 l-55 -29 -45 26
c-25 15 -82 48 -127 74 -46 25 -83 49 -83 53 0 3 30 22 68 43 37 20 92 52 122
71 30 19 59 35 64 35 5 1 57 -27 115 -60z m609 -14 c67 -38 122 -73 122 -76 0
-7 -245 -149 -256 -149 -12 0 -254 141 -254 148 0 10 243 151 256 149 6 -1 65
-33 132 -72z m513 42 c142 -82 159 -92 159 -97 0 -8 -249 -150 -262 -150 -7 0
-24 9 -38 20 -14 11 -28 20 -32 20 -3 0 -38 20 -78 44 -71 44 -71 45 -48 60
40 26 233 136 238 135 3 0 30 -14 61 -32z m325 -188 c68 -39 124 -74 124 -78
0 -6 -93 -62 -220 -134 l-35 -19 -127 73 c-70 41 -127 77 -125 82 2 8 237 146
251 146 5 1 64 -31 132 -70z m592 -3 c67 -39 122 -72 122 -75 0 -3 -59 -39
-130 -79 l-129 -74 -130 74 c-72 40 -130 75 -131 78 0 9 254 151 266 148 5 -2
65 -34 132 -72z m1756 0 l128 -74 -93 -55 c-52 -30 -112 -64 -134 -77 l-40
-22 -127 74 c-70 40 -128 75 -128 78 0 7 242 149 255 149 6 0 68 -33 139 -73z
m581 2 c69 -40 125 -75 125 -78 0 -3 -15 -13 -33 -24 -68 -39 -104 -60 -147
-84 -25 -14 -52 -30 -61 -35 -12 -7 -42 6 -125 53 -60 34 -120 69 -132 77 -23
14 -21 16 105 89 70 41 131 74 136 74 4 0 63 -33 132 -72z m1689 38 c33 -18
92 -52 129 -74 68 -40 69 -40 45 -55 -68 -42 -139 -83 -186 -109 l-52 -29 -63
34 c-114 63 -196 112 -197 117 0 5 81 54 170 103 30 16 59 34 65 38 14 14 23
11 89 -25z m1339 -113 c16 -8 -1 -22 -114 -87 l-133 -76 -133 76 -133 76 132
77 133 77 115 -66 c63 -37 123 -71 133 -77z m-700 66 c67 -39 124 -72 125 -74
3 -3 -99 -64 -219 -133 -25 -14 -31 -12 -152 59 -70 41 -126 77 -125 81 4 11
220 137 236 138 8 0 68 -32 135 -71z m-7561 -11 c70 -40 128 -75 128 -78 0 -9
-244 -145 -260 -145 -16 0 -259 136 -259 145 0 5 249 149 258 150 3 0 62 -33
133 -72z m583 1 c69 -39 125 -75 125 -79 0 -4 -57 -40 -126 -80 -93 -54 -130
-70 -143 -64 -50 25 -241 139 -241 144 0 6 240 148 253 149 4 1 63 -31 132
-70z m592 -4 c68 -38 123 -72 123 -75 0 -4 -229 -139 -251 -148 -5 -2 -68 30
-140 71 -152 87 -154 66 21 166 58 34 110 60 115 58 6 -1 65 -33 132 -72z
m564 13 c60 -35 109 -65 109 -68 0 -5 -68 -45 -207 -122 l-53 -29 -52 29
c-107 59 -168 96 -168 102 0 6 241 148 254 149 5 1 57 -27 117 -61z m1618 31
c25 -5 53 -7 63 -3 21 6 108 -42 108 -61 0 -7 8 -23 19 -36 l19 -23 -102 -59
c-55 -33 -106 -61 -112 -64 -6 -2 -33 9 -61 25 -27 16 -69 40 -94 54 -91 52
-109 63 -109 69 0 13 196 118 210 113 8 -4 35 -10 59 -15z m3455 -256 c16 -9
-1 -21 -114 -87 l-132 -76 -61 34 c-132 72 -197 111 -194 118 1 4 58 41 127
81 l125 73 115 -66 c63 -37 123 -71 134 -77z m-4889 119 c17 -10 50 -30 75
-44 25 -14 66 -38 93 -53 26 -15 47 -30 47 -33 0 -4 -28 -23 -62 -42 -34 -19
-87 -50 -117 -68 -31 -18 -61 -35 -67 -38 -6 -3 -38 10 -70 29 -32 19 -92 53
-133 77 l-73 42 43 26 c132 76 215 122 224 122 6 0 24 -8 40 -18z m677 -53
c68 -40 124 -73 126 -75 3 -2 -120 -77 -216 -131 l-43 -24 -124 71 c-69 39
-127 75 -130 79 -2 5 17 20 43 35 26 14 81 46 122 71 41 24 80 44 87 44 6 1
67 -31 135 -70z m584 0 c68 -39 124 -74 124 -78 0 -3 -58 -39 -129 -79 l-129
-73 -131 77 -132 76 78 46 c141 81 178 102 187 102 5 0 64 -32 132 -71z m1169
2 c65 -37 120 -72 122 -77 1 -5 -55 -42 -125 -82 -120 -69 -128 -72 -152 -59
-14 8 -73 42 -133 77 l-108 63 128 73 c71 40 133 73 138 74 6 0 64 -31 130
-69z m588 -3 c69 -39 124 -75 121 -79 -3 -5 -48 -33 -102 -64 -53 -30 -109
-62 -123 -72 -26 -16 -28 -15 -123 40 -54 32 -100 57 -104 57 -4 0 -20 10 -35
23 l-28 22 123 72 c68 39 128 72 134 72 7 1 68 -31 137 -71z m590 -2 l128 -74
-132 -76 c-72 -42 -135 -75 -138 -74 -33 15 -251 144 -251 150 0 8 241 148
255 147 6 0 68 -33 138 -73z m1752 2 c68 -40 122 -75 119 -79 -2 -4 -60 -40
-129 -79 l-124 -71 -113 65 c-62 36 -121 71 -131 78 -16 12 -4 21 105 85 68
39 129 72 136 72 7 1 69 -31 137 -71z m688 -74 c14 -8 -6 -23 -109 -82 l-127
-73 -128 73 c-71 40 -129 76 -129 79 0 6 124 80 215 130 29 16 30 15 145 -51
63 -37 123 -71 133 -76z m-7678 54 c69 -39 125 -74 125 -77 -1 -7 -244 -151
-254 -151 -13 0 -256 144 -256 152 0 7 240 148 252 148 5 0 64 -32 133 -72z
m589 -2 c125 -72 128 -74 105 -89 -68 -41 -140 -83 -187 -109 l-53 -29 -67 38
c-37 20 -80 46 -97 55 -16 10 -45 26 -62 35 -18 9 -33 19 -33 22 0 7 241 149
255 150 6 1 68 -32 139 -73z m566 12 c127 -73 131 -57 -38 -154 l-113 -65 -57
32 c-31 18 -72 40 -90 51 -93 52 -97 42 46 124 70 40 130 74 135 74 4 0 57
-28 117 -62z m2220 45 c52 -5 70 -13 163 -70 80 -48 90 -32 -86 -132 l-108
-62 -125 72 c-68 39 -126 75 -129 79 -7 11 209 130 225 124 8 -4 35 -8 60 -11z
m-1922 -218 c119 -69 124 -53 -46 -151 l-112 -64 -118 67 c-64 36 -123 72
-129 78 -10 8 19 29 119 87 131 76 132 76 157 59 15 -10 72 -44 129 -76z m600
-8 l94 -55 -128 -72 c-70 -41 -132 -73 -139 -73 -12 0 -267 144 -263 149 2 1
29 16 61 34 32 17 90 51 130 74 l72 43 40 -23 c22 -12 82 -47 133 -77z m1184
-7 l79 -48 -132 -76 -132 -76 -133 77 -133 76 87 50 c48 28 107 62 132 77 l45
27 54 -30 c29 -17 89 -52 133 -77z m2946 -82 c-32 -21 -60 -38 -63 -38 -2 0
-35 -18 -74 -41 l-70 -40 -38 24 c-21 13 -63 37 -93 54 -30 17 -72 40 -93 53
l-38 23 93 55 c51 30 110 64 132 76 l38 23 133 -76 132 -76 -59 -37z m1219 29
c-7 -4 -65 -39 -131 -78 l-119 -70 -134 77 -135 76 78 45 c44 25 103 60 133
78 l54 32 133 -76 c85 -49 129 -79 121 -84z m-4801 82 c68 -39 122 -75 119
-79 -2 -4 -61 -40 -130 -79 l-126 -71 -82 47 c-45 27 -93 54 -107 61 -14 7
-35 21 -48 30 -22 17 -22 18 100 89 68 40 129 72 137 73 7 0 69 -32 137 -71z
m1170 0 c68 -39 122 -75 119 -79 -2 -4 -60 -39 -129 -79 l-124 -71 -132 76
c-72 42 -129 78 -126 81 13 13 243 141 255 142 8 1 69 -31 137 -70z m586 0
c68 -39 124 -73 126 -74 2 -1 -57 -37 -130 -80 -129 -74 -133 -76 -158 -61
-14 9 -73 44 -132 78 l-107 62 127 73 c70 40 132 73 139 73 7 0 67 -32 135
-71z m584 0 c68 -39 122 -74 120 -78 -5 -7 -71 -47 -207 -125 l-47 -26 -132
76 -132 77 109 63 c59 35 115 67 123 73 26 17 40 12 166 -60z m586 0 c67 -39
124 -72 126 -74 3 -2 -71 -47 -197 -119 l-64 -37 -59 36 c-33 19 -61 35 -63
35 -8 0 -128 77 -129 83 -1 9 234 147 251 147 6 0 67 -32 135 -71z m1073 57
c11 -7 36 -22 55 -33 19 -10 65 -36 103 -58 l67 -40 -22 -17 c-13 -9 -34 -23
-48 -30 -14 -7 -63 -35 -109 -62 -67 -40 -86 -47 -100 -38 -9 6 -64 39 -123
72 -60 34 -110 65 -113 70 -5 9 233 149 255 150 9 0 24 -6 35 -14z m-6361 -46
c37 -22 70 -40 72 -40 1 0 28 -15 59 -34 l56 -33 -38 -23 c-133 -80 -226 -131
-232 -128 -41 19 -250 145 -248 151 3 9 238 147 252 147 6 0 41 -18 79 -40z
m627 -24 l110 -64 -127 -73 c-70 -40 -133 -72 -139 -72 -11 0 -185 95 -213
116 -9 7 17 27 95 73 60 35 115 68 123 73 26 17 39 13 151 -53z m314 -181 c44
-26 81 -48 83 -50 4 -4 -53 -37 -198 -117 l-65 -36 -131 76 -132 76 132 77
131 76 50 -27 c28 -15 86 -49 130 -75z m655 -62 c-9 -7 -44 -26 -76 -44 -32
-18 -83 -48 -113 -66 l-53 -34 -135 77 c-73 42 -132 78 -131 79 2 2 61 37 132
78 l129 74 132 -76 c114 -66 130 -78 115 -88z m455 97 c61 -35 118 -68 128
-75 16 -11 2 -22 -114 -89 l-132 -77 -124 74 c-69 41 -126 77 -127 81 -1 7
245 154 254 151 3 -1 55 -31 115 -65z m667 -47 l68 -39 -57 -32 -56 -33 -50
17 c-63 21 -149 14 -189 -16 l-29 -21 -75 41 -75 42 68 42 c38 23 75 45 83 49
8 4 37 19 64 35 l49 29 66 -37 c36 -21 96 -55 133 -77z m573 8 c33 -18 64 -36
68 -41 5 -4 -50 -42 -123 -84 l-131 -76 -122 71 c-67 39 -126 74 -130 78 -4 5
51 42 123 83 l131 76 62 -37 c34 -21 89 -52 122 -70z m550 19 c61 -34 111 -64
112 -65 5 -3 -252 -148 -262 -148 -6 0 -54 25 -108 56 -54 32 -102 57 -105 57
-4 0 -17 8 -29 18 -22 17 -21 18 110 94 116 67 134 75 152 64 11 -7 70 -41
130 -76z m568 10 c70 -40 124 -77 120 -81 -4 -4 -63 -39 -131 -78 l-122 -70
-128 73 c-70 41 -126 77 -125 81 2 8 246 152 253 150 3 -1 63 -35 133 -75z
m552 20 c6 -4 37 -22 70 -40 109 -59 111 -49 -32 -130 -70 -41 -133 -73 -138
-73 -6 0 -68 33 -138 73 l-127 74 78 44 c42 25 102 59 132 77 l54 33 46 -26
c25 -14 50 -29 55 -32z m1248 -46 l88 -51 -132 -76 -132 -76 -41 22 c-23 13
-82 47 -133 77 l-92 54 32 20 c18 10 57 33 87 49 30 17 75 43 100 57 l45 27
45 -25 c25 -15 85 -49 133 -78z m659 -49 c0 -5 -57 -42 -126 -83 l-125 -74
-131 78 c-72 42 -129 78 -127 80 2 2 61 37 131 78 l128 74 125 -73 c68 -40
125 -76 125 -80z m-1280 71 l129 -74 -28 -14 c-44 -23 -123 -67 -184 -104
l-56 -34 -123 70 c-68 38 -127 73 -132 78 -9 9 225 150 251 151 7 1 72 -32
143 -73z m-5252 -9 l109 -64 -97 -56 c-54 -30 -114 -64 -133 -76 l-35 -20
-108 62 c-60 34 -110 65 -110 70 -1 9 233 146 252 146 6 1 61 -28 122 -62z
m302 -175 c54 -31 96 -57 95 -58 -12 -11 -255 -147 -262 -147 -23 0 -264 148
-252 155 6 4 66 38 132 77 l120 69 35 -20 c19 -11 79 -45 132 -76z m551 -134
l-134 -78 -39 25 c-22 14 -41 25 -43 25 -8 0 -164 95 -168 102 -3 6 84 68 95
68 2 0 38 20 81 44 l77 44 132 -77 132 -76 -133 -77z m624 132 c51 -30 91 -55
90 -56 -1 -1 -60 -36 -131 -77 l-130 -76 -45 27 c-25 14 -85 49 -133 77 l-86
50 131 77 132 76 40 -22 c22 -12 81 -46 132 -76z m573 -24 c0 -17 7 -41 15
-53 15 -21 13 -23 -57 -64 -40 -23 -83 -47 -94 -55 -24 -14 -9 -21 -184 80
l-102 59 23 18 c13 10 27 19 30 19 3 0 52 27 108 59 l102 59 80 -45 c73 -42
79 -48 79 -77z m587 29 l103 -59 -60 -38 c-34 -21 -63 -38 -65 -38 -2 0 -34
-18 -71 -39 l-68 -39 -40 22 c-71 40 -116 68 -116 72 0 1 11 14 25 28 26 26
32 64 16 95 -8 15 0 23 52 53 61 36 62 36 92 19 17 -9 76 -43 132 -76z m690
-61 c-1 -1 -61 -35 -134 -77 l-131 -75 -127 73 c-69 40 -126 76 -126 80 0 4
57 40 126 80 l126 72 134 -75 c74 -42 133 -77 132 -78z m453 78 c19 -11 55
-31 80 -45 25 -14 43 -29 41 -34 -2 -4 -61 -40 -130 -80 l-126 -72 -40 24
c-22 13 -81 48 -132 77 l-92 52 77 45 c42 24 102 59 132 77 l55 33 50 -28 c27
-16 66 -37 85 -49z m627 -24 c76 -43 89 -54 75 -62 -9 -5 -66 -39 -127 -74
-60 -36 -114 -65 -120 -65 -11 0 -265 142 -265 148 0 2 33 22 73 45 39 22 99
56 132 74 l60 34 40 -24 c22 -13 81 -48 132 -76z m563 13 c58 -34 104 -64 103
-67 -1 -3 -59 -39 -128 -79 l-127 -73 -105 60 c-58 33 -118 68 -133 77 l-28
17 131 75 c122 70 134 75 157 63 14 -7 72 -40 130 -73z m550 20 c19 -11 61
-35 92 -53 l57 -32 -92 -54 c-51 -29 -110 -64 -133 -77 l-40 -24 -129 75 c-71
41 -130 76 -132 77 -2 3 143 90 222 133 l40 22 40 -23 c22 -13 56 -32 75 -44z
m-4942 -188 c62 -36 112 -67 110 -68 -2 -2 -61 -37 -132 -78 l-128 -75 -117
68 c-64 37 -124 71 -133 76 -13 7 10 25 115 86 109 63 135 74 152 66 11 -6 71
-40 133 -75z m589 -3 l111 -63 -81 -49 c-44 -26 -82 -48 -83 -48 -2 0 -25 -13
-52 -29 l-49 -29 -129 75 c-71 41 -130 76 -132 78 -1 1 57 37 130 78 118 68
135 75 153 64 11 -8 70 -42 132 -77z m558 17 c70 -41 126 -78 124 -83 -1 -5
-59 -41 -128 -80 l-125 -72 -35 22 c-20 13 -61 36 -91 53 -93 51 -130 75 -130
83 0 4 12 13 28 19 15 6 72 38 127 71 55 33 101 59 101 60 1 0 59 -33 129 -73z
m1166 2 c68 -39 128 -74 132 -78 8 -8 -233 -151 -254 -151 -21 0 -260 143
-252 151 6 5 239 144 249 148 1 1 57 -31 125 -70z m599 -8 c19 -11 56 -32 83
-47 l48 -27 -78 -45 c-43 -24 -103 -59 -133 -77 l-54 -33 -46 26 c-25 14 -85
49 -133 78 l-89 51 134 76 133 75 50 -28 c28 -15 66 -37 85 -49z m580 3 c72
-42 130 -77 130 -79 0 -6 -249 -145 -260 -145 -22 0 -261 143 -253 151 7 7
243 146 251 148 2 1 61 -33 132 -75z m617 -19 l103 -59 -93 -53 c-50 -30 -110
-65 -132 -78 l-41 -23 -54 33 c-30 18 -90 52 -133 77 l-77 44 132 77 133 76
30 -17 c16 -10 76 -44 132 -77z m546 24 c67 -39 126 -74 130 -78 8 -8 -231
-151 -252 -151 -7 0 -47 20 -89 44 -42 24 -96 55 -119 68 -24 12 -44 27 -45
31 -2 6 229 150 250 156 1 1 57 -31 125 -70z m-2995 10 c36 1 59 -7 128 -45
46 -26 83 -48 81 -49 -1 -1 -61 -36 -133 -77 l-131 -75 -39 23 c-21 12 -81 47
-132 77 l-93 54 88 51 c83 49 91 51 138 45 28 -4 69 -6 93 -4z m-1377 -190
c66 -39 119 -72 117 -74 -4 -4 -151 -91 -205 -121 -23 -13 -47 -24 -53 -24 -7
0 -50 23 -97 50 -47 28 -87 50 -89 50 -3 0 -21 11 -40 24 l-34 23 40 27 c22
14 42 26 44 26 3 0 42 23 88 50 46 28 89 48 96 45 7 -2 67 -37 133 -76z m597
-7 l114 -65 -94 -54 c-51 -30 -111 -65 -133 -77 l-40 -23 -132 77 -133 78 132
75 c112 64 135 74 152 65 12 -6 72 -40 134 -76z m557 17 c69 -40 128 -75 130
-79 5 -8 -236 -150 -254 -150 -19 0 -261 144 -253 151 6 6 243 147 250 148 1
1 58 -31 127 -70z m598 -8 l128 -73 -79 -47 c-44 -26 -104 -61 -133 -77 l-54
-30 -132 76 -132 77 132 76 c73 42 134 76 137 74 3 -1 63 -35 133 -76z m573 7
c69 -39 127 -74 129 -78 5 -8 -235 -150 -253 -150 -6 0 -26 8 -44 19 -78 44
-213 123 -216 126 -2 1 46 31 105 66 139 82 147 87 152 88 1 1 59 -31 127 -71z
m511 44 c26 -16 55 -31 63 -35 8 -5 24 -13 35 -20 11 -7 42 -25 68 -41 l49
-29 -94 -55 c-141 -83 -158 -92 -171 -92 -7 0 -69 33 -139 73 l-127 73 132 77
c73 42 133 77 134 77 1 0 24 -13 50 -28z m660 -43 c68 -40 126 -75 128 -79 5
-8 -103 -75 -207 -129 l-47 -25 -43 24 c-24 13 -83 47 -132 76 l-90 53 33 18
c18 10 76 43 129 75 53 31 99 57 101 57 2 1 60 -31 128 -70z m593 -5 c72 -42
129 -78 126 -81 -11 -11 -250 -143 -259 -143 -22 0 -257 144 -249 152 7 7 242
147 249 148 1 0 61 -34 133 -76z m-3808 -166 c70 -40 127 -76 125 -80 -1 -4
-58 -40 -127 -81 l-126 -73 -134 78 -133 77 32 18 c17 10 75 43 129 75 53 31
99 57 102 57 2 1 62 -32 132 -71z m513 42 c28 -17 75 -43 105 -60 30 -17 66
-39 80 -50 24 -18 24 -19 5 -26 -11 -4 -69 -36 -128 -71 -60 -35 -113 -63
-118 -63 -18 0 -258 144 -253 152 3 4 49 32 102 63 54 30 107 61 117 70 27 20
32 19 90 -15z m657 -42 c70 -40 128 -76 128 -79 0 -8 -243 -149 -256 -149 -5
0 -67 33 -137 74 l-128 74 128 75 c70 42 130 76 132 76 3 1 62 -32 133 -71z
m493 54 c17 -10 50 -30 75 -44 25 -14 66 -38 92 -53 26 -14 50 -30 52 -34 4
-6 -223 -143 -249 -149 -20 -5 -267 140 -256 151 10 10 243 147 251 147 3 0
19 -8 35 -18z m593 -5 c20 -13 62 -37 92 -54 96 -53 120 -68 120 -75 0 -3 -57
-39 -127 -79 l-126 -72 -81 43 c-45 24 -105 58 -134 75 l-52 32 127 76 c71 42
131 76 136 76 4 1 24 -9 45 -22z m668 -49 c69 -39 127 -74 129 -79 6 -8 -234
-144 -255 -144 -21 0 -260 137 -255 146 4 6 105 67 128 77 4 2 33 19 64 38 31
19 59 34 61 34 2 0 60 -32 128 -72z m594 -4 c118 -69 129 -77 113 -90 -10 -7
-21 -14 -26 -14 -4 0 -37 -18 -73 -40 -36 -22 -70 -40 -74 -40 -4 0 -13 -6
-19 -14 -28 -34 -59 -28 -164 31 -56 32 -110 63 -121 68 -11 6 -21 15 -23 20
-2 8 228 151 249 154 4 1 66 -33 138 -75z m-3225 -166 c69 -40 125 -76 125
-79 0 -7 -242 -149 -254 -149 -11 0 -256 142 -256 149 0 6 239 149 253 150 4
1 63 -32 132 -71z m591 -3 c60 -36 112 -65 116 -65 15 0 8 -21 -9 -27 -9 -4
-65 -35 -125 -70 -60 -35 -112 -63 -115 -63 -11 0 -263 144 -263 150 1 12 257
149 271 144 8 -2 65 -33 125 -69z m572 8 c64 -37 122 -71 129 -77 8 -8 -23
-31 -119 -85 l-131 -75 -41 23 c-108 60 -216 126 -216 131 0 6 241 148 253
149 4 1 61 -29 125 -66z m594 -5 c70 -40 128 -75 128 -78 0 -3 -57 -39 -127
-79 -115 -65 -130 -71 -153 -61 -41 19 -239 135 -239 140 0 5 249 149 259 150
2 0 62 -33 132 -72z m531 31 c40 -23 98 -57 130 -77 l58 -34 -93 -54 c-51 -30
-111 -63 -134 -75 l-40 -22 -127 74 c-70 40 -127 76 -127 79 0 6 241 147 253
149 5 1 41 -18 80 -40z m644 -34 c68 -38 123 -73 123 -76 0 -5 -84 -55 -215
-128 l-43 -24 -130 74 c-72 41 -127 77 -124 81 16 16 248 147 257 145 6 -1 65
-33 132 -72z m516 40 c32 -19 60 -35 63 -35 2 0 21 -11 42 -23 20 -13 50 -32
66 -41 l28 -18 -93 -55 c-52 -30 -112 -64 -133 -75 -43 -22 -40 -23 -141 36
-33 20 -81 48 -107 62 -27 15 -48 30 -48 33 0 3 28 22 62 41 34 19 91 52 127
72 36 21 68 38 71 38 3 0 31 -16 63 -35z m-3149 -209 l128 -74 -38 -24 c-91
-57 -225 -129 -232 -126 -23 9 -252 144 -252 148 0 5 19 16 108 67 24 14 65
38 90 53 26 16 52 29 57 29 6 0 68 -33 139 -73z m581 2 c69 -40 125 -75 125
-78 0 -5 -191 -119 -241 -144 -13 -6 -50 10 -143 64 -70 40 -125 77 -124 82 3
8 237 146 251 147 4 1 63 -32 132 -71z m587 0 c70 -40 127 -75 127 -78 0 -8
-258 -152 -266 -148 -26 11 -253 144 -253 148 0 5 251 150 259 150 3 0 62 -33
133 -72z m584 0 c68 -40 124 -75 124 -78 0 -6 -245 -150 -255 -150 -3 0 -54
28 -113 62 -59 34 -117 67 -130 74 -22 11 -22 12 30 44 29 18 78 47 108 63 30
17 64 36 75 44 11 7 23 13 28 13 4 0 64 -33 133 -72z m559 15 c56 -32 113 -64
128 -72 34 -18 34 -25 0 -42 -16 -8 -74 -40 -130 -73 l-103 -58 -34 18 c-95
53 -226 130 -226 134 0 5 251 150 260 150 3 0 50 -26 105 -57z m611 -15 c68
-39 124 -75 124 -78 0 -6 -244 -150 -255 -150 -10 0 -255 144 -255 150 0 6
241 149 253 150 5 0 64 -32 133 -72z m-2628 -173 c67 -38 122 -73 122 -76 0
-3 -15 -13 -32 -22 -42 -21 -113 -62 -158 -91 -64 -41 -64 -41 -196 36 -69 39
-127 74 -129 77 -5 9 247 152 261 149 6 -2 65 -34 132 -73z m587 0 c63 -37
115 -70 115 -74 0 -6 -243 -151 -253 -151 -5 0 -248 140 -257 147 -6 5 -11 2
135 88 61 35 118 63 127 61 9 -2 69 -34 133 -71z m580 3 c69 -40 125 -75 125
-78 0 -3 -58 -38 -129 -78 l-129 -73 -130 73 c-72 40 -131 76 -132 79 0 3 15
13 33 22 17 9 75 41 127 72 52 30 98 55 102 55 4 0 64 -33 133 -72z m587 0
c70 -40 128 -76 128 -79 0 -4 -8 -9 -17 -13 -10 -3 -25 -10 -33 -16 -8 -5 -59
-35 -113 -66 l-98 -55 -130 73 c-71 40 -129 75 -129 78 0 7 242 149 254 150 5
0 67 -33 138 -72z m509 44 c25 -15 80 -47 122 -71 42 -25 77 -47 77 -50 0 -4
-58 -39 -129 -79 l-130 -74 -73 43 c-40 23 -99 57 -131 76 l-58 35 128 74 c70
41 133 74 138 73 6 0 31 -12 56 -27z m-684 -288 c2 -7 -203 -132 -249 -152 -3
-2 -66 32 -138 74 l-131 77 73 42 c40 24 100 58 132 77 l60 34 125 -72 c69
-39 126 -76 128 -80z m-1374 123 c92 -50 207 -120 207 -126 0 -3 -58 -39 -129
-79 l-128 -73 -132 77 -133 76 129 74 c70 41 132 74 136 74 4 0 27 -10 50 -23z
m579 4 c18 -11 51 -30 74 -43 123 -71 144 -84 144 -90 0 -5 -4 -8 -9 -8 -4 0
-63 -32 -130 -71 -67 -39 -128 -68 -134 -65 -58 27 -239 143 -236 151 5 12
229 144 246 144 6 1 27 -8 45 -18z m1262 -53 c69 -40 123 -75 121 -78 -2 -4
-61 -39 -130 -79 l-125 -72 -43 24 c-23 13 -59 33 -79 45 -21 12 -55 31 -75
43 -72 40 -73 38 60 116 67 40 128 72 135 72 6 1 68 -31 136 -71z m-1426 -191
l93 -54 -132 -77 -132 -76 -113 64 c-62 36 -122 71 -133 77 -17 12 -7 20 112
89 l132 76 40 -22 c22 -13 82 -47 133 -77z m548 22 c68 -39 122 -75 119 -79
-2 -4 -60 -39 -129 -79 l-124 -71 -132 76 c-72 42 -130 78 -128 79 2 2 44 27
93 55 50 29 104 61 120 71 17 9 36 18 44 18 8 1 69 -31 137 -70z m586 0 c68
-39 124 -73 126 -74 2 -1 -56 -37 -129 -79 l-131 -76 -124 70 c-68 39 -126 75
-129 80 -6 10 226 149 252 150 7 0 67 -32 135 -71z m-300 -166 c21 -13 40 -23
42 -23 3 0 26 -13 50 -29 l45 -28 -47 -27 c-26 -15 -63 -36 -82 -47 -19 -12
-57 -34 -85 -49 l-50 -29 -113 65 c-63 35 -122 70 -132 77 -16 11 -4 21 113
89 l132 76 45 -26 c25 -14 62 -36 82 -49z m-586 2 c60 -35 115 -68 123 -73 10
-6 -23 -30 -118 -85 l-133 -77 -121 71 c-67 39 -126 74 -130 79 -9 8 229 150
254 150 8 0 64 -29 125 -65z m416 -259 c-9 -5 -69 -40 -133 -77 l-116 -67
-128 73 c-69 39 -127 76 -127 80 1 4 57 40 127 80 l126 73 134 -77 c107 -60
130 -78 117 -85z"/>
<path d="M22921 21031 c-22 -14 -4 -33 20 -21 11 6 17 15 14 21 -8 11 -16 11
-34 0z"/>
<path d="M22641 20871 c-22 -14 -4 -33 20 -21 11 6 17 15 14 21 -8 11 -16 11
-34 0z"/>
<path d="M22843 20862 c-17 -11 43 -46 64 -37 14 5 11 10 -15 25 -37 23 -33
22 -49 12z"/>
<path d="M27573 22279 c-190 -17 -399 -78 -532 -156 -168 -99 -276 -267 -256
-400 l6 -43 39 20 c22 11 59 20 83 20 25 0 61 7 80 15 20 8 54 15 76 15 30 0
43 5 51 20 10 18 8 20 -30 20 -112 0 -142 77 -66 167 45 52 118 90 198 103
152 24 394 -44 537 -152 31 -24 56 -37 59 -30 8 26 48 65 78 78 47 20 127 17
182 -5 26 -11 76 -22 111 -25 53 -5 70 -2 101 15 34 19 38 26 43 72 7 55 3 67
-20 67 -28 0 -152 72 -199 116 -40 37 -58 45 -123 59 -62 13 -302 38 -321 33
-3 0 -46 -4 -97 -9z"/>
<path d="M15768 21790 c-48 -28 -78 -135 -40 -146 30 -9 96 -46 134 -76 l37
-29 66 36 c36 20 65 41 65 46 0 11 -90 82 -147 115 -24 15 -48 35 -54 45 -11
21 -34 24 -61 9z"/>
<path d="M14639 21129 c-46 -49 -52 -129 -10 -129 11 0 55 -21 98 -46 l78 -46
65 35 c35 19 66 39 67 44 3 11 -69 63 -142 103 -33 18 -66 41 -74 51 -20 28
-49 23 -82 -12z"/>
<path d="M15825 20900 c-135 -17 -305 -67 -420 -124 -135 -66 -225 -144 -275
-238 -30 -55 -35 -74 -38 -154 -5 -111 5 -144 64 -224 106 -140 309 -244 579
-296 126 -25 405 -24 535 0 129 25 260 69 350 117 80 44 179 117 180 135 0 5
16 25 35 44 44 42 75 136 75 224 0 185 -209 381 -495 464 -171 50 -428 73
-590 52z"/>
<path d="M26860 20468 c-74 -44 -156 -92 -182 -106 -26 -15 -441 -256 -922
-536 -808 -470 -874 -510 -863 -527 8 -14 22 -19 47 -18 19 0 78 -2 130 -5 52
-4 274 -17 494 -30 l398 -24 72 42 c39 24 240 140 447 259 l376 217 6 38 c3
20 26 147 50 282 25 135 48 265 51 290 7 54 14 91 27 149 5 24 8 45 7 46 -2 1
-64 -34 -138 -77z"/>
<path d="M16978 20351 c-6 -112 -35 -171 -132 -266 -88 -86 -192 -146 -340
-197 -401 -136 -931 -92 -1237 104 -110 70 -205 175 -237 263 l-10 30 -1 -35
c-1 -47 32 -180 64 -258 14 -35 23 -67 20 -71 -2 -5 -18 -14 -35 -21 l-30 -12
0 -322 0 -322 73 -41 72 -42 5 317 c3 174 6 312 8 305 4 -21 152 -171 215
-219 174 -130 389 -198 617 -192 l115 3 3 -385 2 -386 62 -34 c35 -19 66 -36
70 -38 5 -2 8 195 8 437 l0 441 95 44 c308 144 512 400 577 724 l13 62 665
-384 c366 -211 664 -388 662 -392 -3 -8 -977 -578 -1008 -591 -7 -2 -14 13
-18 38 -28 174 -183 400 -348 508 -35 22 -73 50 -85 62 -29 29 -65 19 -92 -25
-26 -42 -28 -104 -3 -112 86 -26 214 -134 287 -244 49 -74 99 -196 110 -270
l7 -46 -94 -52 c-51 -29 -114 -65 -139 -80 -25 -15 -130 -76 -233 -136 l-187
-108 108 -63 c144 -83 630 -362 718 -413 155 -89 939 -540 1070 -615 406 -232
1744 -1003 1777 -1023 21 -13 40 -24 42 -24 3 0 75 -41 160 -90 140 -81 158
-89 179 -79 61 33 4403 2542 4410 2548 4 5 -20 16 -55 26 -35 9 -108 33 -163
52 -55 20 -140 46 -190 60 -105 28 -362 73 -420 73 -35 0 -100 -35 -455 -241
-228 -132 -433 -251 -455 -264 -31 -17 -964 -560 -1257 -730 l-57 -34 -633
366 c-348 201 -651 375 -673 388 -22 12 -67 38 -100 57 -203 118 -315 183
-350 203 -22 12 -94 54 -160 92 -66 39 -140 81 -165 95 -48 27 -334 192 -360
207 -18 11 -1280 740 -1330 769 -19 11 -107 61 -195 112 -88 51 -216 125 -285
165 -69 40 -249 144 -401 232 l-277 160 -4 -86z"/>
<path d="M15011 20304 c0 -11 3 -14 6 -6 3 7 2 16 -1 19 -3 4 -6 -2 -5 -13z"/>
<path d="M25455 13323 c-10 -136 1 -576 15 -623 19 -66 21 -66 98 -21 l70 41
261 -150 260 -150 73 10 c84 12 157 34 206 63 l35 21 -5 -120 c-3 -65 -7 -125
-9 -132 -3 -8 155 -105 419 -257 233 -135 425 -245 427 -245 2 0 5 99 7 219
l3 220 42 59 42 60 -963 556 c-530 306 -966 556 -969 556 -3 0 -8 -48 -12
-107z"/>
</g>
</svg>
