<?xml version="1.0" standalone="no"?>
<!DOCTYPE svg PUBLIC "-//W3C//DTD SVG 20010904//EN"
 "http://www.w3.org/TR/2001/REC-SVG-20010904/DTD/svg10.dtd">
<svg version="1.0" xmlns="http://www.w3.org/2000/svg"
 width="284.000000pt" height="285.000000pt" viewBox="0 0 284.000000 285.000000"
 preserveAspectRatio="xMidYMid meet">
<metadata>
Created by potrace 1.16, written by Peter Selinger 2001-2019
</metadata>
<g transform="translate(0.000000,285.000000) scale(0.100000,-0.100000)"
fill="#000000" stroke="none">
<path d="M1345 2709 c-106 -11 -278 -52 -311 -74 -13 -8 -24 -21 -24 -29 0
-28 56 -38 265 -47 355 -13 505 -61 505 -160 0 -44 -32 -120 -80 -185 -65 -90
-227 -243 -382 -360 -168 -128 -218 -174 -218 -202 0 -62 191 12 429 165 221
143 415 335 485 483 26 55 31 77 31 141 0 65 -4 81 -27 117 -62 93 -218 146
-458 156 -69 2 -165 0 -215 -5z"/>
<path d="M2090 1860 c-234 -31 -379 -150 -355 -292 19 -113 77 -197 371 -543
96 -113 140 -181 156 -239 32 -121 -54 -149 -520 -166 -343 -13 -362 -16 -362
-62 0 -29 49 -44 216 -70 196 -29 590 -33 694 -6 94 24 153 52 200 94 88 79
103 170 49 284 -39 82 -106 172 -275 366 -160 184 -197 234 -218 297 -21 62
-20 79 5 110 34 44 102 57 339 68 266 12 313 17 335 33 25 18 7 48 -42 69
-101 44 -443 77 -593 57z"/>
<path d="M845 1509 c-240 -24 -425 -80 -409 -124 11 -27 65 -34 309 -39 428
-9 555 -56 555 -202 -1 -92 -71 -205 -209 -336 -185 -176 -475 -344 -559 -323
-57 14 -10 139 165 444 125 217 143 271 91 271 -56 0 -93 -41 -275 -305 -138
-199 -216 -330 -310 -513 -79 -155 -87 -188 -49 -198 84 -21 407 88 676 227
371 193 611 413 726 669 24 53 29 78 29 141 0 66 -4 81 -28 117 -81 123 -409
202 -712 171z"/>
</g>
</svg>
